<svg width="377" height="145" viewBox="0 0 377 145" fill="none" xmlns="http://www.w3.org/2000/svg">
<path d="M379.501 52.2179L379.501 98.7239L342.786 98.7239L326.468 137.887L226.929 144.414L111.072 111.778L104.544 111.778L57.2226 111.778L49.8795 98.7239L0.925779 98.7239L0.925778 62.0086L49.8795 62.0086L57.2226 44.8748L90.6743 41.6112L111.072 38.3477L239.983 0.000569384L335.443 22.0297L342.786 52.2179L379.501 52.2179Z" fill="#FFB802"/>
<path d="M322.91 74.7831L322.91 81.1797L364.407 81.1797L364.407 74.7831L322.91 74.7831Z" fill="#EFE8D6"/>
<path d="M84.8334 77.3269C84.8334 76.3968 84.9966 75.5319 85.1924 74.7813C86.041 71.4035 88.1786 69.6575 88.1786 69.6575L88.456 57.5496L97.2677 57.3538C98.0346 57.3375 98.7853 57.4191 99.5196 57.5822C98.9321 63.2609 98.6221 68.9885 98.5568 74.7813C98.5242 76.8863 98.5242 79.024 98.5568 81.1779C98.6058 84.2294 98.72 87.2808 98.9158 90.3649C99.0627 93.0247 99.2585 95.6846 99.5032 98.377C98.7689 98.5402 98.0346 98.6055 97.2677 98.6055L88.6029 98.4097L88.3092 84.9963C88.3092 84.9963 86.5305 83.6909 85.5025 81.1779C85.0782 80.1173 84.7845 78.8118 84.8334 77.3269Z" fill="#EFE8D6"/>
<path d="M24.0952 74.7831L64.5147 74.7831L64.5147 81.1797L24.0626 81.1797L16.4258 77.8182L24.0952 74.7831Z" fill="#EFE8D6"/>
<path d="M99.5185 57.5802C100.498 57.7924 101.411 58.1514 102.276 58.6735L105.801 60.7459C106.241 61.007 106.731 61.1702 107.237 61.2518L107.188 61.4639C106.959 65.9024 106.829 70.3572 106.78 74.7793C106.764 76.917 106.764 79.0383 106.78 81.1759C106.796 83.5257 106.845 85.8755 106.927 88.2089C106.992 90.3792 107.074 92.5495 107.188 94.7035C106.698 94.7851 106.225 94.9646 105.801 95.2093L102.276 97.2817C101.411 97.8039 100.481 98.1465 99.5022 98.375C99.2574 95.6825 99.0616 93.0227 98.9147 90.3629C98.7189 87.2788 98.6047 84.2274 98.5557 81.1759C98.5231 79.022 98.5231 76.8843 98.5557 74.7793C98.621 68.9865 98.931 63.2589 99.5185 57.5802Z" fill="#EFE8D6"/>
<path d="M107.186 61.464L107.235 61.2519C107.839 61.3661 108.475 61.3335 109.079 61.1703C111.216 60.5992 115.214 59.5385 120.55 58.1352L120.615 58.3636C119.196 58.8368 118.413 66.4083 118.249 74.7794C118.2 76.8844 118.2 79.0547 118.249 81.176C118.298 84.5539 118.461 87.8011 118.723 90.5262C119.114 94.6057 119.751 97.494 120.599 97.8203C115.247 96.4007 111.2 95.34 109.079 94.7689C108.459 94.6057 107.806 94.573 107.186 94.7036C107.072 92.5496 106.99 90.3793 106.925 88.2091C106.843 85.8756 106.794 83.5258 106.778 81.176C106.762 79.0384 106.762 76.9171 106.778 74.7794C106.827 70.3573 106.957 65.9025 107.186 61.464Z" fill="#EFE8D6"/>
<path d="M71.7895 57.8726L88.4501 57.5462L88.1727 69.6541C88.1727 69.6541 86.035 71.4001 85.1865 74.7779C84.9907 75.5285 84.8438 76.3934 84.8275 77.3235C84.7786 78.8084 85.0723 80.1139 85.4965 81.1745C86.5246 83.6875 88.3032 84.9929 88.3032 84.9929L88.5969 98.4062L71.7895 98.0636C67.7427 97.982 64.5117 94.6858 64.5117 90.6389L64.5117 65.3135C64.5117 61.2504 67.7427 57.9542 71.7895 57.8726Z" fill="#EFE8D6"/>
<path d="M217.885 103.372C217.885 103.372 226.371 106.064 236.52 107.06L232.849 117.52C221.851 116.165 212.859 113.783 212.859 113.783L217.885 103.372Z" fill="#EFE8D6"/>
<path d="M247.98 107.218C269.112 105.488 315.504 94.8812 315.504 94.8812C315.194 98.2917 314.149 104.378 313.186 107.691C312.501 109.992 310.51 111.672 308.144 111.999C296.705 113.533 263.156 117.922 249.334 118.412C246.365 118.51 243.281 118.428 240.262 118.232L244.423 107.381C245.598 107.381 246.805 107.332 247.98 107.218Z" fill="#EFE8D6"/>
<path d="M212.29 94.9022C212.747 90.6106 213.122 85.7805 213.155 81.1788C213.171 80.2324 213.171 79.3186 213.155 78.3885C213.155 78.1274 213.171 77.8826 213.155 77.6052C213.171 76.6914 213.171 75.7287 213.155 74.7822C213.122 70.1969 212.747 65.3994 212.29 61.1078C211.343 52.2309 207.558 43.9251 201.602 37.3489L201.602 37.3326C214.509 34.1996 225.556 31.6703 232.051 30.5281C252.513 26.9055 293.863 33.6285 310.654 36.6799C315.158 37.4958 318.715 40.9878 319.596 45.4916C321.032 52.753 322.909 64.0614 322.909 73.3626L322.909 82.5985C322.909 88.2445 322.224 94.6411 321.359 100.401C320.804 104.138 320.151 107.598 319.596 110.469C318.715 114.957 315.158 118.465 310.654 119.281C293.863 122.333 252.513 129.056 232.051 125.4C225.556 124.258 214.525 121.745 201.634 118.596C204.816 115.104 207.362 111.106 209.173 106.798C210.805 103.029 211.866 99.0306 212.29 94.9022ZM217.887 103.371L212.861 113.782C212.861 113.782 221.852 116.164 232.85 117.519L236.522 107.059C226.372 106.064 217.887 103.371 217.887 103.371ZM313.183 107.695C314.146 104.383 315.191 98.2963 315.501 94.8859C315.501 94.8859 269.109 105.493 247.977 107.222C246.802 107.336 245.595 107.385 244.42 107.385L240.259 118.237C243.277 118.433 246.362 118.514 249.331 118.416C263.153 117.927 296.702 113.537 308.141 112.003C310.507 111.677 312.498 109.996 313.183 107.695Z" fill="#EFE8D6"/>
<path d="M120.601 97.8211C119.753 97.4947 119.116 94.6064 118.725 90.5269C118.464 87.8019 118.301 84.5546 118.252 81.1768C118.203 79.0555 118.203 76.8852 118.252 74.7802C118.415 66.4091 119.198 58.8376 120.618 58.3644L120.552 58.1359C139.351 53.1426 174.548 43.8904 201.587 37.3306L201.603 37.3469C207.559 43.923 211.345 52.2288 212.292 61.1058C212.749 65.3974 213.124 70.1948 213.156 74.7802C213.173 75.7266 213.173 76.6894 213.156 77.6032C213.173 77.8806 213.157 78.1253 213.157 78.3864C213.173 79.3165 213.173 80.2303 213.157 81.1768C213.124 85.7784 212.749 90.6085 212.292 94.9001C211.867 99.0286 210.807 103.026 209.175 106.796C207.364 111.104 204.818 115.102 201.636 118.594C174.63 112.067 139.416 102.814 120.601 97.8211Z" fill="#EFE8D6"/>
<path d="M106.927 88.2109C106.372 88.113 106.078 88.0478 106.078 88.0478L106.927 88.2109Z" fill="#EFE8D6"/>
<path d="M106.927 88.2109C106.372 88.113 106.078 88.0478 106.078 88.0478" stroke="#FFB802" stroke-width="1.63179" stroke-miterlimit="10"/>
<path d="M98.9145 90.3671L97.9844 90.6445" stroke="#FFB802" stroke-width="1.63179" stroke-miterlimit="10"/>
<path d="M99.5019 98.377C98.7676 98.5402 98.0333 98.6055 97.2664 98.6055L88.6016 98.4097" fill="#EFE8D6"/>
<path d="M99.5019 98.377C98.7676 98.5402 98.0333 98.6055 97.2664 98.6055L88.6016 98.4097" stroke="#FFB802" stroke-width="1.63179" stroke-miterlimit="10"/>
<path d="M88.4531 57.5494L97.2648 57.3536C98.0317 57.3373 98.7824 57.4189 99.5167 57.582" fill="#EFE8D6"/>
<path d="M88.4531 57.5494L97.2648 57.3536C98.0317 57.3373 98.7824 57.4189 99.5167 57.582" stroke="#FFB802" stroke-width="1.63179" stroke-miterlimit="10"/>
<path d="M64.5117 74.7779L64.5117 65.3135C64.5117 61.2504 67.7427 57.9542 71.7895 57.8726L88.4501 57.5462L88.1727 69.6541C88.1727 69.6541 86.035 71.4001 85.1865 74.7779C84.9907 75.5285 84.8438 76.3934 84.8275 77.3235C84.7786 78.8084 85.0723 80.1139 85.4965 81.1745C86.5246 83.6875 88.3032 84.9929 88.3032 84.9929L88.5969 98.4062L71.7895 98.0636C67.7427 97.982 64.5117 94.6858 64.5117 90.6389L64.5117 81.1745" fill="#EFE8D6"/>
<path d="M64.5117 74.7779L64.5117 65.3135C64.5117 61.2504 67.7427 57.9542 71.7895 57.8726L88.4501 57.5462L88.1727 69.6541C88.1727 69.6541 86.035 71.4001 85.1865 74.7779C84.9907 75.5285 84.8438 76.3934 84.8275 77.3235C84.7786 78.8084 85.0723 80.1139 85.4965 81.1745C86.5246 83.6875 88.3032 84.9929 88.3032 84.9929L88.5969 98.4062L71.7895 98.0636C67.7427 97.982 64.5117 94.6858 64.5117 90.6389L64.5117 81.1745" stroke="#FFB802" stroke-width="1.63179" stroke-miterlimit="10"/>
<path d="M201.633 118.596C214.524 121.745 225.555 124.258 232.049 125.4C252.512 129.056 293.862 122.333 310.653 119.281C315.156 118.465 318.714 114.957 319.595 110.469C320.15 107.598 320.802 104.138 321.357 100.401C322.222 94.6411 322.907 88.2445 322.907 82.5985L322.907 81.1788" fill="#EFE8D6"/>
<path d="M201.633 118.596C214.524 121.745 225.555 124.258 232.049 125.4C252.512 129.056 293.862 122.333 310.653 119.281C315.156 118.465 318.714 114.957 319.595 110.469C320.15 107.598 320.802 104.138 321.357 100.401C322.222 94.6411 322.907 88.2445 322.907 82.5985L322.907 81.1788" stroke="#FFB802" stroke-width="1.63179" stroke-miterlimit="10"/>
<path d="M322.909 74.7773L322.909 73.3577C322.909 64.0565 321.032 52.7482 319.596 45.4867C318.715 40.983 315.158 37.4909 310.654 36.675C293.863 33.6236 252.513 26.9006 232.051 30.5232C225.556 31.6654 214.509 34.1947 201.602 37.3277" fill="#EFE8D6"/>
<path d="M322.909 74.7773L322.909 73.3577C322.909 64.0565 321.032 52.7482 319.596 45.4867C318.715 40.983 315.158 37.4909 310.654 36.675C293.863 33.6236 252.513 26.9006 232.051 30.5232C225.556 31.6654 214.509 34.1947 201.602 37.3277" stroke="#FFB802" stroke-width="1.63179" stroke-miterlimit="10"/>
<path d="M120.601 97.8203C115.249 96.4007 111.202 95.34 109.08 94.7689C108.46 94.6057 107.808 94.573 107.187 94.7036" fill="#EFE8D6"/>
<path d="M120.601 97.8203C115.249 96.4007 111.202 95.34 109.08 94.7689C108.46 94.6057 107.808 94.573 107.187 94.7036" stroke="#FFB802" stroke-width="1.63179" stroke-miterlimit="10"/>
<path d="M201.598 37.3469C207.554 43.923 211.34 52.2288 212.286 61.1058C212.743 65.3974 213.118 70.1948 213.151 74.7802C213.167 75.7266 213.167 76.6894 213.151 77.6032C213.167 77.8806 213.151 78.1253 213.151 78.3864C213.167 79.3165 213.167 80.2303 213.151 81.1768C213.118 85.7784 212.743 90.6085 212.286 94.9001C211.862 99.0286 210.801 103.026 209.169 106.796C207.358 111.104 204.813 115.102 201.631 118.594C174.624 112.067 139.41 102.814 120.596 97.8211C119.747 97.4947 119.111 94.6064 118.719 90.5269C118.458 87.8019 118.295 84.5546 118.246 81.1768" fill="#EFE8D6"/>
<path d="M201.598 37.3469C207.554 43.923 211.34 52.2288 212.286 61.1058C212.743 65.3974 213.118 70.1948 213.151 74.7802C213.167 75.7266 213.167 76.6894 213.151 77.6032C213.167 77.8806 213.151 78.1253 213.151 78.3864C213.167 79.3165 213.167 80.2303 213.151 81.1768C213.118 85.7784 212.743 90.6085 212.286 94.9001C211.862 99.0286 210.801 103.026 209.169 106.796C207.358 111.104 204.813 115.102 201.631 118.594C174.624 112.067 139.41 102.814 120.596 97.8211C119.747 97.4947 119.111 94.6064 118.719 90.5269C118.458 87.8019 118.295 84.5546 118.246 81.1768" stroke="#FFB802" stroke-width="1.63179" stroke-miterlimit="10"/>
<path d="M106.78 81.1759C106.796 83.5257 106.845 85.8755 106.927 88.2089C106.992 90.3792 107.074 92.5495 107.188 94.7035C106.698 94.7851 106.225 94.9646 105.801 95.2093L102.276 97.2817C101.411 97.8039 100.481 98.1465 99.5022 98.375C99.2574 95.6825 99.0616 93.0227 98.9147 90.3629C98.7189 87.2788 98.6047 84.2274 98.5557 81.1759C98.5231 79.022 98.5231 76.8843 98.5557 74.7793C98.621 68.9865 98.931 63.2589 99.5185 57.5802C100.498 57.7924 101.411 58.1514 102.276 58.6735L105.801 60.7459C106.241 61.007 106.731 61.1702 107.237 61.2518C107.841 61.366 108.477 61.3334 109.081 61.1702C111.218 60.599 115.216 59.5384 120.552 58.135C139.35 53.1418 174.548 43.8895 201.587 37.3297" fill="#EFE8D6"/>
<path d="M106.78 81.1759C106.796 83.5257 106.845 85.8755 106.927 88.2089C106.992 90.3792 107.074 92.5495 107.188 94.7035C106.698 94.7851 106.225 94.9646 105.801 95.2093L102.276 97.2817C101.411 97.8039 100.481 98.1465 99.5022 98.375C99.2574 95.6825 99.0616 93.0227 98.9147 90.3629C98.7189 87.2788 98.6047 84.2274 98.5557 81.1759C98.5231 79.022 98.5231 76.8843 98.5557 74.7793C98.621 68.9865 98.931 63.2589 99.5185 57.5802C100.498 57.7924 101.411 58.1514 102.276 58.6735L105.801 60.7459C106.241 61.007 106.731 61.1702 107.237 61.2518C107.841 61.366 108.477 61.3334 109.081 61.1702C111.218 60.599 115.216 59.5384 120.552 58.135C139.35 53.1418 174.548 43.8895 201.587 37.3297" stroke="#FFB802" stroke-width="1.63179" stroke-miterlimit="10"/>
<path d="M97.9844 90.6562L98.9145 90.3625" stroke="#FFB802" stroke-width="1.63179" stroke-miterlimit="10"/>
<path d="M107.189 61.4619C106.961 65.9004 106.83 70.3552 106.781 74.7773L107.189 61.4619Z" fill="#EFE8D6"/>
<path d="M107.189 61.4619C106.961 65.9004 106.83 70.3552 106.781 74.7773" stroke="#FFB802" stroke-width="1.63179" stroke-miterlimit="10"/>
<path d="M107.187 94.7056L107.188 94.7383L107.187 94.7056Z" fill="#EFE8D6"/>
<path d="M107.187 94.7056L107.188 94.7383" stroke="#FFB802" stroke-width="1.63179" stroke-miterlimit="10"/>
<path d="M99.5312 57.5689L99.5312 57.5852L99.5312 57.6016" fill="#EFE8D6"/>
<path d="M99.5312 57.5689L99.5312 57.5852L99.5312 57.6016" stroke="#FFB802" stroke-width="1.63179" stroke-miterlimit="10"/>
<path d="M99.5 98.3756C99.5 98.3756 99.5163 98.5551 99.5163 98.6367L99.5 98.3756Z" fill="#EFE8D6"/>
<path d="M99.5 98.3756C99.5 98.3756 99.5163 98.5551 99.5163 98.6367" stroke="#FFB802" stroke-width="1.63179" stroke-miterlimit="10"/>
<path d="M201.635 118.609C201.586 118.707 201.472 118.789 201.391 118.887L201.635 118.609Z" fill="#EFE8D6"/>
<path d="M201.635 118.609C201.586 118.707 201.472 118.789 201.391 118.887" stroke="#FFB802" stroke-width="1.63179" stroke-miterlimit="10"/>
<path d="M201.391 37.1231C201.391 37.1231 201.521 37.2537 201.586 37.3352L201.603 37.3516" fill="#EFE8D6"/>
<path d="M201.391 37.1231C201.391 37.1231 201.521 37.2537 201.586 37.3352L201.603 37.3516" stroke="#FFB802" stroke-width="1.63179" stroke-miterlimit="10"/>
<path d="M120.759 58.3452C120.759 58.3452 120.661 58.3452 120.612 58.3615C119.193 58.8347 118.409 66.4063 118.246 74.7773" fill="#EFE8D6"/>
<path d="M120.759 58.3452C120.759 58.3452 120.661 58.3452 120.612 58.3615C119.193 58.8347 118.409 66.4063 118.246 74.7773" stroke="#FFB802" stroke-width="1.63179" stroke-miterlimit="10"/>
<path d="M120.598 97.8235C120.598 97.8235 120.696 97.8398 120.761 97.8398L120.598 97.8235Z" fill="#EFE8D6"/>
<path d="M120.598 97.8235C120.598 97.8235 120.696 97.8398 120.761 97.8398" stroke="#FFB802" stroke-width="1.63179" stroke-miterlimit="10"/>
<path d="M321.375 100.387L321.359 100.402" stroke="#FFB802" stroke-width="1.63179" stroke-miterlimit="10"/>
<path d="M217.885 103.372C217.885 103.372 226.371 106.064 236.52 107.06L232.849 117.52C221.851 116.165 212.859 113.783 212.859 113.783L217.885 103.372Z" fill="#EFE8D6" stroke="#FFB802" stroke-width="1.63179" stroke-miterlimit="10"/>
<path d="M315.504 94.8812C315.194 98.2917 314.149 104.378 313.186 107.691C312.501 109.992 310.51 111.672 308.144 111.999C296.705 113.533 263.156 117.922 249.334 118.412C246.365 118.51 243.281 118.428 240.262 118.232L244.423 107.381C245.598 107.381 246.805 107.332 247.98 107.218C269.112 105.488 315.504 94.8812 315.504 94.8812Z" fill="#EFE8D6" stroke="#FFB802" stroke-width="1.63179" stroke-miterlimit="10"/>
<path d="M236.748 106.406L236.52 107.059" stroke="#FFB802" stroke-width="1.63179" stroke-miterlimit="10"/>
<path d="M240.258 118.238L240.062 118.711" stroke="#FFB802" stroke-width="1.63179" stroke-miterlimit="10"/>
<path d="M88.4531 57.5018L88.4531 57.5508" stroke="#FFB802" stroke-width="1.63179" stroke-miterlimit="10"/>
<path d="M88.6016 98.4097L88.6016 98.6055" stroke="#FFB802" stroke-width="1.63179" stroke-miterlimit="10"/>
<path d="M106.778 81.1797C106.762 79.042 106.762 76.9207 106.778 74.7831L106.778 81.1797Z" fill="#EFE8D6"/>
<path d="M106.778 81.1797C106.762 79.042 106.762 76.9207 106.778 74.7831" stroke="#FFB802" stroke-width="1.63179" stroke-miterlimit="10"/>
<path d="M118.252 74.7831C118.203 76.8881 118.203 79.0584 118.252 81.1797L118.252 74.7831Z" fill="#EFE8D6"/>
<path d="M118.252 74.7831C118.203 76.8881 118.203 79.0584 118.252 81.1797" stroke="#FFB802" stroke-width="1.63179" stroke-miterlimit="10"/>
<path d="M64.5147 81.1797L24.0626 81.1797L16.4258 77.8182L24.0952 74.7831L64.5147 74.7831L64.5147 81.1797Z" fill="#EFE8D6" stroke="#FFB802" stroke-width="1.63179" stroke-miterlimit="10"/>
<path d="M322.91 74.7831L322.91 81.1797L364.407 81.1797L364.407 74.7831L322.91 74.7831Z" fill="#EFE8D6" stroke="#FFB802" stroke-width="1.63179" stroke-miterlimit="10"/>
</svg>
