<svg width="387" height="215" viewBox="0 0 387 215" fill="none" xmlns="http://www.w3.org/2000/svg">
<path d="M101.171 185.21L308.408 214.582L325.542 128.913L399.789 128.913L399.789 70.9844L352.467 70.9844L269.245 0.00154463L86.4849 19.583L74.2465 79.1434L18.7656 82.407L-4.95728e-06 101.173L18.7656 122.386L61.1921 122.386L70.9829 147.679L101.171 185.21Z" fill="#FFB802"/>
<path d="M109.002 99.1783C110.731 101.267 110.715 103.421 109.083 105.559L29.6478 105.559L22.0273 102.213L29.7131 99.1783L109.002 99.1783Z" fill="#EFE8D6"/>
<path d="M128.043 59.7037L151.851 67.6179L130.735 79.0078L128.043 59.7037Z" fill="#EFE8D6"/>
<path d="M132.045 172.269C126.302 171.616 120.9 169.462 116.348 166.1L116.348 166.068L123.201 158.676L139.568 173.101L139.568 173.117L132.045 172.269Z" fill="#EFE8D6"/>
<path d="M109.085 105.562C110.717 103.424 110.734 101.271 109.004 99.1818L92.2127 99.1818L96.5043 52.0557C97.0754 45.8059 100.404 40.4047 105.267 37.0269L105.479 37.3369L128.047 59.7088L130.739 79.0129L123.2 158.677L116.363 166.069L116.363 166.102C113.54 164.029 111.06 161.5 109.02 158.579L96.5206 140.662C91.9027 134.053 89.7813 126.008 90.483 117.98L91.6253 105.562L109.085 105.562Z" fill="#EFE8D6"/>
<path d="M235.728 28.4732L248.064 28.0816L248.293 38.6719L235.304 29.9581C234.618 29.5339 234.928 28.5058 235.728 28.4732Z" fill="#EFE8D6"/>
<path d="M133.217 42.6547C130.884 40.4844 132.254 36.5844 135.436 36.356L216.34 30.7263C217.63 30.6447 218.902 30.9874 219.947 31.7543L233.295 41.2187L219.849 41.9693L217.907 55.4479L204.494 56.2148L205.979 44.2865L143.024 51.6132L142.975 51.6785C142.828 51.5642 142.698 51.45 142.567 51.3195L133.217 42.6547Z" fill="#EFE8D6"/>
<path d="M200.743 85.942L213.634 85.0282L211.578 99.1758L199.078 99.1758L200.743 85.942Z" fill="#EFE8D6"/>
<path d="M146.337 143.856C146.174 142.86 146.158 141.832 146.256 140.771L147.202 130.997L147.235 130.997L234.324 136.007L234.536 135.974C234.715 137.312 235.123 138.634 235.792 139.858L237.865 143.709C238.86 145.569 237.489 147.788 235.401 147.707L215.623 147.103L234.683 164.645L220.633 162.915L202.308 146.515L146.337 143.872L146.337 143.856Z" fill="#EFE8D6"/>
<path d="M234.586 132.695C234.406 133.789 234.39 134.882 234.537 135.975L234.324 136.008L147.236 130.998L147.203 130.998L148.574 116.655L196.336 121.044L198.278 105.559L210.663 105.559L208.297 121.828L233.068 123.378C234.683 123.459 235.842 124.944 235.581 126.527L234.586 132.695Z" fill="#EFE8D6"/>
<path d="M198.276 105.559L149.633 105.559L149.845 103.356C149.992 101.903 150.318 100.484 150.808 99.1783L255.683 99.1783L254.72 105.559L198.276 105.559Z" fill="#EFE8D6"/>
<path d="M272.735 99.1783L370.023 99.1783L370.023 105.559L271.609 105.559L272.735 99.1783Z" fill="#EFE8D6"/>
<path d="M148.577 116.655L147.207 130.999L146.26 140.773C146.162 141.834 146.179 142.862 146.342 143.857L146.342 143.89C147.141 149.715 151.776 154.496 157.878 155.231L220.621 162.916L234.687 164.646L240.725 165.38C243.499 165.723 246.044 163.798 246.468 161.04L254.725 105.559L255.688 99.1787L257.565 86.6302C257.907 84.1989 255.933 82.0612 253.485 82.2244L213.637 85.0311L200.746 85.9449L165.156 88.4415C158.564 88.9147 153.032 93.2227 150.813 99.1787C150.323 100.484 149.997 101.904 149.85 103.356L149.638 105.559L148.577 116.655ZM248.557 53.6517C249.275 53.6191 249.552 52.689 248.949 52.281L233.316 41.2175L219.952 31.7531C218.907 30.9862 217.635 30.6435 216.346 30.7251L135.441 36.3548C132.259 36.5832 130.889 40.4832 133.222 42.6535L142.572 51.3183C142.703 51.4488 142.833 51.563 142.98 51.6773C148.447 56.5726 155.627 59.0693 162.921 58.645L204.482 56.2136L217.912 55.4467L248.557 53.6517ZM248.068 28.0816L235.731 28.4732C234.932 28.5058 234.622 29.5339 235.307 29.9581L248.296 38.6719L266.458 50.8287C268.155 51.971 270.162 52.5421 272.202 52.5258L305.082 51.9383L305.148 51.9383C306.633 51.9383 308.036 52.5747 309.031 53.6844C311.153 56.1157 312.425 59.1345 312.686 62.2839C312.817 63.6872 312.735 65.0906 312.474 66.4939L310.924 74.0981C310.484 76.4315 308.509 78.1776 306.159 78.3407L276.004 80.6579L272.74 99.1787L271.614 105.559L260.388 169.199L290.413 173.164C291.848 173.36 292.811 174.731 292.534 176.15L291.033 183.249C290.233 187.083 286.627 189.694 282.743 189.237L139.57 173.115L139.57 173.099L123.219 158.674L130.742 79.0098L151.857 67.6199L128.049 59.7057L105.482 37.3338L105.27 37.0238C108.125 35.0656 111.519 33.7928 115.191 33.4828L251.886 22.044C253.045 21.946 254.219 22.354 255.084 23.1862L258.707 26.6456C259.115 27.0372 258.854 27.7226 258.283 27.7552L248.084 28.0816L248.068 28.0816Z" fill="#EFE8D6"/>
<path d="M128.043 59.7037L151.851 67.6179L130.735 79.0078L128.043 59.7037Z" fill="#EFE8D6" stroke="#FFB802" stroke-width="1.63179" stroke-miterlimit="10"/>
<path d="M272.74 99.1758L276.003 80.655L306.159 78.3378C308.509 78.1746 310.483 76.4286 310.924 74.0952L312.474 66.491C312.735 65.0877 312.817 63.6843 312.686 62.281C312.425 59.1316 311.152 56.1128 309.031 53.6815C308.035 52.5718 306.632 51.9354 305.147 51.9354L305.082 51.9354L272.201 52.5229C270.162 52.5392 268.155 51.9681 266.457 50.8258L248.296 38.669L235.307 29.9552C234.621 29.531 234.931 28.5029 235.731 28.4703L248.067 28.0787L258.282 27.7523C258.853 27.7197 259.114 27.0343 258.706 26.6427L255.084 23.1833C254.219 22.3511 253.044 21.9431 251.886 22.041L115.19 33.4799C111.519 33.7899 108.125 35.0627 105.269 37.0209C100.406 40.3987 97.0776 45.7999 96.5064 52.0497L92.2148 99.1758" fill="#EFE8D6"/>
<path d="M272.74 99.1758L276.003 80.655L306.159 78.3378C308.509 78.1746 310.483 76.4286 310.924 74.0952L312.474 66.491C312.735 65.0877 312.817 63.6843 312.686 62.281C312.425 59.1316 311.152 56.1128 309.031 53.6815C308.035 52.5718 306.632 51.9354 305.147 51.9354L305.082 51.9354L272.201 52.5229C270.162 52.5392 268.155 51.9681 266.457 50.8258L248.296 38.669L235.307 29.9552C234.621 29.531 234.931 28.5029 235.731 28.4703L248.067 28.0787L258.282 27.7523C258.853 27.7197 259.114 27.0343 258.706 26.6427L255.084 23.1833C254.219 22.3511 253.044 21.9431 251.886 22.041L115.19 33.4799C111.519 33.7899 108.125 35.0627 105.269 37.0209C100.406 40.3987 97.0776 45.7999 96.5064 52.0497L92.2148 99.1758" stroke="#FFB802" stroke-width="1.63179" stroke-miterlimit="10"/>
<path d="M91.6252 105.559L90.483 117.977C89.7813 126.005 91.9027 134.05 96.5206 140.659L109.02 158.576C111.06 161.497 113.54 164.026 116.347 166.098C120.9 169.46 126.301 171.614 132.045 172.267L139.567 173.115L282.741 189.237C286.624 189.694 290.23 187.083 291.03 183.249L292.531 176.15C292.809 174.731 291.846 173.36 290.41 173.164L260.385 169.199L271.612 105.559" fill="#EFE8D6"/>
<path d="M91.6252 105.559L90.483 117.977C89.7813 126.005 91.9027 134.05 96.5206 140.659L109.02 158.576C111.06 161.497 113.54 164.026 116.347 166.098C120.9 169.46 126.301 171.614 132.045 172.267L139.567 173.115L282.741 189.237C286.624 189.694 290.23 187.083 291.03 183.249L292.531 176.15C292.809 174.731 291.846 173.36 290.41 173.164L260.385 169.199L271.612 105.559" stroke="#FFB802" stroke-width="1.63179" stroke-miterlimit="10"/>
<path d="M220.617 162.918L157.874 155.232C151.771 154.498 147.137 149.717 146.337 143.891L146.337 143.859C146.174 142.863 146.158 141.835 146.256 140.775L147.202 131L148.573 116.657L149.634 105.561" fill="#EFE8D6"/>
<path d="M220.617 162.918L157.874 155.232C151.771 154.498 147.137 149.717 146.337 143.891L146.337 143.859C146.174 142.863 146.158 141.835 146.256 140.775L147.202 131L148.573 116.657L149.634 105.561" stroke="#FFB802" stroke-width="1.63179" stroke-miterlimit="10"/>
<path d="M254.721 105.557L246.464 161.038C246.04 163.796 243.494 165.721 240.72 165.378L234.683 164.644L220.633 162.914" fill="#EFE8D6"/>
<path d="M254.721 105.557L246.464 161.038C246.04 163.796 243.494 165.721 240.72 165.378L234.683 164.644L220.633 162.914" stroke="#FFB802" stroke-width="1.63179" stroke-miterlimit="10"/>
<path d="M150.812 99.1758C153.032 93.2197 158.564 88.9118 165.156 88.4386L200.745 85.942L213.636 85.0282L253.485 82.2215C255.932 82.0583 257.907 84.1959 257.564 86.6273L255.688 99.1758" fill="#EFE8D6"/>
<path d="M150.812 99.1758C153.032 93.2197 158.564 88.9118 165.156 88.4386L200.745 85.942L213.636 85.0282L253.485 82.2215C255.932 82.0583 257.907 84.1959 257.564 86.6273L255.688 99.1758" stroke="#FFB802" stroke-width="1.63179" stroke-miterlimit="10"/>
<path d="M233.311 41.2135L248.944 52.2771C249.547 52.685 249.27 53.6152 248.552 53.6478L217.907 55.4428L204.494 56.2097L162.916 58.6411C155.622 59.0653 148.442 56.5687 142.975 51.6733C142.828 51.5591 142.698 51.4449 142.567 51.3143L133.217 42.6495C130.884 40.4792 132.254 36.5793 135.436 36.3508L216.34 30.7211C217.63 30.6395 218.902 30.9822 219.947 31.7492L233.295 41.2135" fill="#EFE8D6"/>
<path d="M233.311 41.2135L248.944 52.2771C249.547 52.685 249.27 53.6152 248.552 53.6478L217.907 55.4428L204.494 56.2097L162.916 58.6411C155.622 59.0653 148.442 56.5687 142.975 51.6733C142.828 51.5591 142.698 51.4449 142.567 51.3143L133.217 42.6495C130.884 40.4792 132.254 36.5793 135.436 36.3508L216.34 30.7211C217.63 30.6395 218.902 30.9822 219.947 31.7492L233.295 41.2135" stroke="#FFB802" stroke-width="1.63179" stroke-miterlimit="10"/>
<path d="M146.211 143.875L146.341 143.875L202.312 146.518L220.621 162.918L220.637 162.918" fill="#EFE8D6"/>
<path d="M146.211 143.875L146.341 143.875L202.312 146.518L220.621 162.918L220.637 162.918" stroke="#FFB802" stroke-width="1.63179" stroke-miterlimit="10"/>
<path d="M233.539 41.1998L233.31 41.2161L233.294 41.2161L219.848 41.9667L217.906 55.4453" fill="#EFE8D6"/>
<path d="M233.539 41.1998L233.31 41.2161L233.294 41.2161L219.848 41.9667L217.906 55.4453" stroke="#FFB802" stroke-width="1.63179" stroke-miterlimit="10"/>
<path d="M235.103 165.035L234.679 164.644L215.62 147.102L235.397 147.706C237.486 147.787 238.856 145.568 237.861 143.708L235.789 139.857C235.12 138.633 234.712 137.311 234.532 135.973C234.385 134.88 234.402 133.786 234.581 132.693L235.577 126.525C235.838 124.942 234.679 123.457 233.064 123.376L208.293 121.825L210.659 105.556" fill="#EFE8D6"/>
<path d="M235.103 165.035L234.679 164.644L215.62 147.102L235.397 147.706C237.486 147.787 238.856 145.568 237.861 143.708L235.789 139.857C235.12 138.633 234.712 137.311 234.532 135.973C234.385 134.88 234.402 133.786 234.581 132.693L235.577 126.525C235.838 124.942 234.679 123.457 233.064 123.376L208.293 121.825L210.659 105.556" stroke="#FFB802" stroke-width="1.63179" stroke-miterlimit="10"/>
<path d="M213.634 85.0282L211.578 99.1758" stroke="#FFB802" stroke-width="1.63179" stroke-miterlimit="10"/>
<path d="M200.743 85.942L199.078 99.1758" stroke="#FFB802" stroke-width="1.63179" stroke-miterlimit="10"/>
<path d="M198.279 105.561L196.337 121.047L148.575 116.657L148.102 116.625" fill="#EFE8D6"/>
<path d="M198.279 105.561L196.337 121.047L148.575 116.657L148.102 116.625" stroke="#FFB802" stroke-width="1.63179" stroke-miterlimit="10"/>
<path d="M143.023 51.6132L205.978 44.2865L204.477 56.2148" fill="#EFE8D6"/>
<path d="M143.023 51.6132L205.978 44.2865L204.477 56.2148" stroke="#FFB802" stroke-width="1.63179" stroke-miterlimit="10"/>
<path d="M248.291 38.7578L248.291 38.6762L248.062 28.0859L248.062 28.0533" fill="#EFE8D6"/>
<path d="M248.291 38.7578L248.291 38.6762L248.062 28.0859L248.062 28.0533" stroke="#FFB802" stroke-width="1.63179" stroke-miterlimit="10"/>
<path d="M105.477 37.3352L128.044 59.707" stroke="#FFB802" stroke-width="1.63179" stroke-miterlimit="10"/>
<path d="M130.735 79.0104L123.197 158.674L116.359 166.066" fill="#EFE8D6"/>
<path d="M130.735 79.0104L123.197 158.674L116.359 166.066" stroke="#FFB802" stroke-width="1.63179" stroke-miterlimit="10"/>
<path d="M123.219 158.673L139.569 173.098" stroke="#FFB802" stroke-width="1.63179" stroke-miterlimit="10"/>
<path d="M313.043 62.2688L312.684 62.2852" stroke="#FFB802" stroke-width="1.63179" stroke-miterlimit="10"/>
<path d="M234.323 136.008L147.234 130.998" stroke="#FFB802" stroke-width="1.63179" stroke-miterlimit="10"/>
<path d="M91.6232 105.559L29.6478 105.559L22.0273 102.213L29.7131 99.1783L109.002 99.1783C110.731 101.267 110.715 103.421 109.083 105.559L91.6232 105.559Z" fill="#EFE8D6" stroke="#FFB802" stroke-width="1.63179" stroke-miterlimit="10"/>
<path d="M150.808 99.1783L255.683 99.1783L254.72 105.559L149.633 105.559L149.845 103.356C149.992 101.903 150.318 100.484 150.808 99.1783Z" fill="#EFE8D6" stroke="#FFB802" stroke-width="1.63179" stroke-miterlimit="10"/>
<path d="M271.609 105.559L272.735 99.1783L370.023 99.1783L370.023 105.559L271.609 105.559Z" fill="#EFE8D6" stroke="#FFB802" stroke-width="1.63179" stroke-miterlimit="10"/>
<path d="M109.086 105.562C109.086 105.562 109.02 105.611 109.004 105.66L109.086 105.562Z" fill="#EFE8D6"/>
<path d="M109.086 105.562C109.086 105.562 109.02 105.611 109.004 105.66" stroke="#FFB802" stroke-width="1.63179" stroke-miterlimit="10"/>
</svg>
