<svg viewBox="0 0 387 200" fill="none" xmlns="http://www.w3.org/2000/svg">
    <path
        d="M360.626 147.677L394.893 147.677L394.893 67.7195L360.626 62.8241L321.463 9.79089L245.584 0.000157112L222.739 21.2134L186.84 9.7909L151.757 21.2134L141.966 13.8704L109.33 9.7909L69.3511 76.6943L17.1338 76.6943L-4.03002e-06 107.698L5.71126 119.937L33.4517 126.464L17.1338 160.732L61.1921 187.656L133.807 181.129L151.757 194.999L216.212 181.129L228.451 194.999L294.538 199.895L360.626 147.677Z"
        fill="#FFB802" />
    <path
        d="M181.502 40.0075C181.502 40.0075 178.924 43.9891 175.922 41.3782C176.623 41.313 177.145 41.1661 177.145 41.1661L176.378 38.6858C176.378 38.6858 173.996 38.1146 175.97 36.4502C175.97 36.4502 184.146 34.4431 181.502 40.0075Z"
        fill="#EFE8D6" />
    <path
        d="M213.077 62.5127C213.077 62.5127 211.429 60.6851 214.007 60.4403C214.007 60.4403 221.889 63.3939 216.553 66.4943C216.553 66.4943 212.18 68.3382 211.168 64.4708C211.804 64.8298 212.31 65.0093 212.31 65.0093L213.077 62.5127Z"
        fill="#EFE8D6" />
    <path d="M35.4077 100.537L77.9811 100.537L74.6686 106.934L35.3751 106.934L27.7383 103.572L35.4077 100.537Z"
        fill="#EFE8D6" />
    <path
        d="M93.3698 151.087C93.9246 155.117 91.0364 157.597 87.0058 158.071C79.0264 159.001 67.4407 156.847 61.9089 153.763C60.1139 152.767 58.8248 151.168 59.6733 148.884L77.9983 109.133C78.4552 108.122 79.0264 107.404 79.6628 106.93C80.854 106.033 82.2736 106.098 83.3996 106.93C84.2644 107.583 84.9987 108.725 85.3251 110.243C85.374 110.471 85.423 110.7 85.4556 110.928L93.3698 151.087Z"
        fill="#EFE8D6" />
    <path
        d="M95.9783 83.3488C93.808 84.5563 91.4256 83.7731 93.1063 80.7216L110.615 50.3213C112.606 47.172 115.38 47.3352 118.53 48.5264C121.614 49.6686 124.502 52.1326 126.884 54.8414C129.267 57.5502 131.127 60.5037 132.171 62.674C132.873 64.0937 132.824 65.7418 130.899 67.0798L127.88 68.4832L95.9783 83.3488Z"
        fill="#EFE8D6" />
    <path
        d="M129.217 71.3379C134.03 69.3471 135.858 69.2166 137.31 72.986C140.574 81.3898 141.194 88.2759 140.476 94.1177C140.199 96.1738 139.203 97.9361 136.902 97.9687L98.1473 92.2738C93.6109 91.719 93.3988 88.1127 96.8745 86.432L129.217 71.3379Z"
        fill="#EFE8D6" />
    <path
        d="M111.204 38.476C117.715 41.7723 123.443 45.9986 128.322 50.894L126.886 54.8429C124.503 52.1341 121.615 49.6701 118.531 48.5279C115.382 47.3366 112.608 47.1735 110.617 50.3228L93.1077 80.7231C91.427 83.7745 93.8094 84.5578 95.9797 83.3503L127.881 68.4847L129.219 71.3403L96.8771 86.4344C93.4014 88.1151 93.6136 91.7214 98.1499 92.2762L97.8073 95.5397C93.4177 94.6423 91.1006 97.5142 93.4993 100.533C93.7604 100.876 94.0705 101.218 94.4621 101.545L95.6043 102.687L93.5809 104.727C90.7416 101.904 87.6086 103.03 87.9349 106.93C87.9839 107.256 88.0492 107.631 88.1307 108.007L88.4734 109.557L85.3241 110.242C84.9977 108.725 84.2634 107.582 83.3985 106.93C82.2726 106.097 80.853 106.032 79.6617 106.93C79.0253 107.403 78.4542 108.121 77.9973 109.133L74.4727 107.289L74.6685 106.93L77.981 100.533L110.535 38.1334L111.204 38.476Z"
        fill="#EFE8D6" />
    <path
        d="M140.972 106.93C141.005 107.762 140.972 108.644 140.841 109.574C139.944 116.917 134.004 127.54 129.941 131.423C128.603 132.712 126.824 133.333 124.915 131.864L99.8671 106.93L95.6081 102.688L94.4658 101.545C94.0742 101.219 93.7642 100.876 93.5031 100.534C91.1043 97.5147 93.4215 94.6428 97.811 95.5403L127.705 100.534L136.909 102.084C139.797 102.687 140.825 104.499 140.972 106.93Z"
        fill="#EFE8D6" />
    <path
        d="M87.9337 106.934C87.6073 103.035 90.7403 101.909 93.5797 104.732C93.7265 104.878 93.8897 105.042 94.0366 105.221L95.6683 106.934L122.218 134.822C124.779 137.759 123.523 140.451 121.108 143.16C116.327 148.464 106.879 152.804 101.575 153.489C99.8457 153.718 98.1324 153.13 97.4796 150.797L88.4721 109.562L88.1295 108.011C88.0479 107.636 87.9826 107.261 87.9337 106.934Z"
        fill="#EFE8D6" />
    <path
        d="M130.899 67.0808C132.824 65.7428 132.873 64.0947 132.171 62.675C131.127 60.5047 129.267 57.5512 126.884 54.8424L128.32 50.8935C141.44 64.0783 148.375 82.1912 147.608 100.533L147.037 106.929C146.025 113.93 143.904 120.865 140.542 127.506C124.029 159.995 84.213 172.951 51.512 156.47C51.463 156.454 50.4676 155.916 50.027 155.687L49.3906 155.361L74.4712 107.288L77.9959 109.132L59.6709 148.883C58.8224 151.167 60.1115 152.766 61.9065 153.762C67.4382 156.846 79.0239 159 87.0034 158.069C91.0339 157.596 93.9222 155.116 93.3674 151.085L85.4532 110.927C85.4206 110.699 85.3716 110.47 85.3227 110.242L88.472 109.556L97.4795 150.792C98.1322 153.125 99.8456 153.713 101.575 153.484C106.879 152.799 116.327 148.458 121.108 143.155C123.523 140.446 124.779 137.754 122.217 134.816L95.6682 106.929L94.0364 105.216C93.8896 105.036 93.7264 104.873 93.5795 104.726L95.6029 102.687L99.8619 106.929L124.91 131.863C126.819 133.332 128.598 132.711 129.936 131.422C133.999 127.539 139.939 116.916 140.836 109.573C140.967 108.643 140.999 107.761 140.967 106.929C140.82 104.498 139.792 102.687 136.904 102.083L127.7 100.533L97.8059 95.5393L98.1485 92.2757L136.904 97.9706C139.204 97.938 140.2 96.1757 140.477 94.1196C141.195 88.2778 140.575 81.3917 137.312 72.9879C135.859 69.2185 134.032 69.349 129.218 71.3398L127.88 68.4842L130.899 67.0808Z"
        fill="#EFE8D6" />
    <path
        d="M179.61 100.537L184.734 100.537C184.097 101.761 183.477 102.936 182.857 104.111C182.433 104.992 182.009 105.824 181.568 106.673C181.503 106.754 181.47 106.852 181.421 106.934L151.723 106.934C152.033 104.812 152.245 102.675 152.359 100.537L179.61 100.537Z"
        fill="#EFE8D6" />
    <path
        d="M147.04 106.929L147.611 100.532C148.378 82.1911 141.443 64.0783 128.324 50.8934C123.445 45.998 117.717 41.7717 111.206 38.4755L110.537 38.1328L113.295 32.8458C139.371 46.0796 153.845 73.1021 152.36 100.532C152.246 102.67 152.034 104.808 151.723 106.929C150.646 114.452 148.346 121.909 144.723 129.056C126.871 164.221 83.9226 178.304 48.7085 160.55C48.6596 160.533 47.5663 159.979 47.1094 159.734L49.3939 155.361L50.0303 155.687C50.4709 155.915 51.4663 156.454 51.5152 156.47C84.2163 172.951 124.032 159.995 140.546 127.506C143.907 120.865 146.029 113.929 147.04 106.929Z"
        fill="#EFE8D6" />
    <path
        d="M196.352 130.75C198.849 125.969 201.868 120.454 205.001 114.987C206.061 121.661 206.992 127.16 207.579 130.228C209.194 138.828 209.08 149.581 210.239 155.358C210.989 158.931 209.439 162.701 206.208 164.382C200.53 167.351 198.017 161.314 198.017 161.314C198.017 161.314 197.168 142.956 196.336 130.783C196.336 130.767 196.352 130.767 196.352 130.75Z"
        fill="#EFE8D6" />
    <path
        d="M191.458 140.745C192.551 138.232 194.249 134.773 196.337 130.791C197.169 142.964 198.018 161.322 198.018 161.322C194.51 166.233 192.454 164.928 190.185 163.655C187.852 162.382 186.53 159.821 186.449 157.161C186.383 155.431 186.285 153.424 186.187 151.254C188.097 147.713 189.99 144.041 191.458 140.745Z"
        fill="#EFE8D6" />
    <path
        d="M217.794 69.3496C228.237 64.9111 217.549 58.5961 217.06 58.3024C218.414 58.5635 219.719 59.053 220.764 59.6731C226.85 63.3446 230.62 72.5153 224.794 75.5504C218.953 78.5692 216.162 72.0421 216.162 72.0421C216.162 72.0421 215.15 70.7693 214.4 70.7693L214.367 70.1818C215.395 70.1329 216.554 69.8718 217.794 69.3496Z"
        fill="#EFE8D6" />
    <path
        d="M211.168 64.4696C212.18 68.337 216.553 66.4931 216.553 66.4931C221.889 63.3927 214.008 60.4391 214.008 60.4391C211.429 60.6839 213.077 62.5115 213.077 62.5115L212.31 65.0081C212.31 65.0081 211.805 64.8286 211.168 64.4696ZM214.758 55.8538C227.176 55.1195 232.773 67.5211 230.619 72.5144C230.228 73.4282 229.901 74.2441 229.591 74.9947C229.591 74.9947 229.591 75.0273 229.575 75.0436C229.395 75.321 228.384 76.8386 226.703 77.9645C226.458 78.144 226.213 78.3072 225.952 78.4378C225.756 78.552 225.561 78.6499 225.349 78.7315C224.777 78.9926 224.125 79.1884 223.439 79.2863C223.178 79.3189 222.885 79.3516 222.623 79.3516C221.791 79.3516 220.861 79.2047 219.882 78.8294C218.364 78.2583 217.026 77.2629 215.966 76.0064L213.436 73.0365C213.567 72.7265 213.649 72.3838 213.665 72.0248C213.73 71.0947 214.04 70.7684 214.399 70.7684C215.15 70.7684 216.162 72.0411 216.162 72.0411C216.162 72.0411 218.952 78.5683 224.794 75.5495C230.619 72.5144 226.85 63.3437 220.763 59.6722C219.719 59.0521 218.413 58.5626 217.059 58.3015C217.549 58.5952 228.237 64.9102 217.793 69.3487C216.553 69.8709 215.395 70.132 214.367 70.1809C206.942 70.5236 204.674 60.0312 206.713 57.9425C206.811 57.8609 206.909 57.7956 207.007 57.714C207.056 57.6977 207.089 57.6651 207.121 57.6324C208.672 56.6697 210.956 56.0659 214.758 55.8538Z"
        fill="#EFE8D6" />
    <path
        d="M182.351 44.6587C181.877 44.8056 181.665 45.2299 182.236 46.1926C182.416 46.5027 182.53 46.829 182.595 47.1554L182.612 47.1717C183.183 49.5052 181.812 52.5403 182.808 56.2771C183.966 60.5361 187.213 60.5361 187.474 67.3896C187.589 70.3268 188.976 79.2853 190.591 89.3535C188.649 93.0413 186.61 96.876 184.733 100.531L179.609 100.531C176.117 82.5652 171.254 58.17 170.602 51.3817C169.982 45.034 167.322 42.0152 168.529 38.4743C168.529 38.4743 168.529 38.4579 168.546 38.4579C167.942 41.3952 176.231 49.2114 182.236 43.9244L182.351 44.6587Z"
        fill="#EFE8D6" />
    <path
        d="M190.593 89.357C193.857 83.2052 196.957 77.4286 199.193 73.3165C199.96 71.9295 200.612 70.722 201.151 69.7592C204.219 64.1785 203.729 60.1969 206.715 57.9451C204.676 60.0338 206.944 70.5262 214.368 70.1835L214.401 70.7709C214.042 70.7709 213.732 71.0973 213.667 72.0274C213.65 72.3864 213.569 72.7291 213.438 73.0391C212.606 75.291 209.734 77.037 208.478 80.6759C207.025 84.837 209.701 86.6646 206.063 92.4738C205.23 93.7955 203.99 96.0311 202.538 98.8214C202.261 99.3762 201.967 99.9474 201.657 100.535C201.037 101.726 200.417 102.982 199.748 104.272C199.421 104.924 199.079 105.577 198.752 106.262C198.622 106.491 198.524 106.703 198.393 106.931C198.099 107.552 197.757 108.172 197.463 108.808C196.941 109.82 196.419 110.864 195.897 111.892C195.472 112.773 195.015 113.654 194.591 114.519C191.556 120.573 188.651 126.366 186.693 129.858C186.187 130.788 185.551 131.914 184.833 133.154C178.91 143.386 167.308 162.135 167.308 162.135C161.645 164.207 159.051 162.38 157.892 160.046C156.685 157.68 157.06 154.808 158.48 152.589C163.767 144.234 171.664 127.655 176.446 117.163C177.604 114.666 179.187 111.403 181.015 107.764C181.161 107.486 181.292 107.225 181.423 106.931C181.471 106.85 181.504 106.752 181.569 106.67C182.01 105.822 182.434 104.99 182.859 104.108C183.479 102.934 184.099 101.759 184.735 100.535C186.612 96.8796 188.651 93.0449 190.593 89.357Z"
        fill="#EFE8D6" />
    <path
        d="M196.512 37.0591C196.708 38.0219 196.871 38.8704 197.067 39.67L197.067 39.7026C197.083 40.2574 197.213 46.8499 191.208 48.3185C189.609 48.7101 187.945 48.6285 186.362 48.1879L182.609 47.1599C182.527 46.8335 182.413 46.5072 182.234 46.1971C181.663 45.2344 181.875 44.8101 182.348 44.6633C183.033 44.4348 184.306 44.8264 184.306 44.8264C184.306 44.8264 190.295 48.6122 193.395 42.8356C196.512 37.0591 188.222 31.6089 181.108 32.0006C179.9 32.0821 178.546 32.4248 177.257 32.9633C177.257 32.9633 190.393 31.8863 184.127 41.6771C183.539 42.6072 182.903 43.3415 182.234 43.9289C176.229 49.2159 167.939 41.3997 168.543 38.4624L168.543 38.4461C168.543 38.4461 168.592 38.3319 168.608 38.2666C168.608 38.185 168.673 38.1035 168.722 38.0219L168.722 38.0055C169.44 36.3411 171.007 34.5462 174.009 32.229C183.849 24.6249 195.467 31.6905 196.512 37.0591ZM175.968 36.4553C173.993 38.1198 176.376 38.6909 176.376 38.6909L177.142 41.1712C177.142 41.1712 176.62 41.3181 175.919 41.3834C178.921 43.9942 181.499 40.0126 181.499 40.0126C184.143 34.4482 175.968 36.4553 175.968 36.4553Z"
        fill="#EFE8D6" />
    <path
        d="M182.235 43.9235C182.904 43.336 183.54 42.6017 184.128 41.6716C190.394 31.8809 177.258 32.9578 177.258 32.9578C178.547 32.4193 179.901 32.0767 181.109 31.9951C188.223 31.6035 196.513 37.0536 193.396 42.8302C190.296 48.6067 184.307 44.821 184.307 44.821C184.307 44.821 183.034 44.4293 182.349 44.6578L182.235 43.9235Z"
        fill="#EFE8D6" />
    <path
        d="M182.612 47.1776L182.612 47.1613L186.365 48.1893C187.948 48.6299 189.612 48.7115 191.212 48.3198C197.217 46.8512 197.086 40.2588 197.07 39.704C197.869 43.3755 198.44 46.2475 197.951 55.5813C197.788 58.8612 198.294 65.3884 199.191 73.3189C196.955 77.431 193.855 83.2075 190.591 89.3594C188.976 79.2912 187.589 70.3327 187.475 67.3955C187.214 60.542 183.966 60.542 182.808 56.283C181.812 52.5462 183.183 49.5111 182.612 47.1776Z"
        fill="#EFE8D6" />
    <path
        d="M167.304 162.134C167.304 162.134 178.906 143.385 184.829 133.154C185.547 131.914 186.184 130.788 186.69 129.857C188.648 126.365 191.552 120.573 194.587 114.519C195.012 113.654 195.469 112.773 195.893 111.891C196.415 110.863 196.937 109.819 197.459 108.807C197.753 108.171 198.096 107.551 198.389 106.931C198.52 106.702 198.618 106.49 198.748 106.262C199.075 105.576 199.418 104.924 199.744 104.271C200.413 102.982 201.033 101.725 201.653 100.534C201.963 99.9467 202.257 99.3756 202.534 98.8208C203.987 96.0304 205.227 93.7949 206.059 92.4731C209.698 86.6639 207.022 84.8363 208.474 80.6753C209.73 77.0364 212.602 75.2904 213.435 73.0385L215.964 76.0084C217.025 77.2648 218.363 78.2602 219.88 78.8313C220.859 79.2067 221.789 79.3535 222.622 79.3535C222.883 79.3535 223.176 79.3209 223.437 79.2883C224.123 79.1903 224.776 78.9945 225.347 78.7334C225.559 78.6519 225.755 78.554 225.95 78.4397C226.212 78.3092 226.456 78.146 226.701 77.9665C228.382 76.8406 229.394 75.323 229.573 75.0456C228.17 78.5213 227.011 81.1975 221.349 88.6384C219.423 91.1514 216.633 95.443 213.516 100.534C212.276 102.541 210.987 104.695 209.665 106.931C208.115 109.542 206.548 112.267 204.998 114.992C201.865 120.458 198.846 125.974 196.35 130.755C196.35 130.771 196.333 130.771 196.333 130.788C194.245 134.769 192.548 138.229 191.454 140.742C189.986 144.038 188.093 147.709 186.184 151.25C183.459 156.292 180.734 161.106 179.379 164.288C177.976 167.65 174.582 169.885 170.975 169.445C164.611 168.694 167.304 162.134 167.304 162.134Z"
        fill="#EFE8D6" />
    <path
        d="M209.664 106.934C210.986 104.698 212.275 102.544 213.515 100.537L258.667 100.537C258.585 102.756 258.536 105.106 258.471 106.934L209.664 106.934Z"
        fill="#EFE8D6" />
    <path
        d="M260.056 52.0834C261.231 63.7344 262.031 78.1594 262.194 93.9878L258.8 94.0204C258.816 95.0811 258.767 97.7083 258.669 100.531L249.254 100.531C249.303 66.9164 252.012 38.4906 255.781 28.0471C256.238 29.3362 256.662 30.8701 257.103 32.6488C257.674 35.1128 258.212 38.001 258.702 41.2809C258.784 41.8357 258.865 42.3906 258.947 42.9617C259.208 44.773 259.453 46.6658 259.681 48.6566C259.812 49.7662 259.926 50.9085 260.056 52.0834Z"
        fill="#EFE8D6" />
    <path
        d="M249.284 106.934C249.528 138.28 252.156 164.487 255.697 174.686C255.125 176.285 254.538 177.46 253.902 178.161C253.445 178.684 252.971 178.961 252.482 178.961C252.156 178.961 251.829 178.814 251.503 178.553C251.421 178.488 251.34 178.422 251.258 178.325C251.03 178.129 250.817 177.851 250.622 177.525C250.54 177.411 250.458 177.28 250.393 177.133C249.61 175.779 248.876 173.69 248.207 170.965C248.076 170.525 247.978 170.051 247.848 169.578C247.799 169.284 247.733 168.974 247.652 168.648C247.521 168.061 247.407 167.44 247.276 166.788C247.26 166.788 247.26 166.739 247.26 166.706C247.13 166.086 247.015 165.45 246.917 164.797C246.607 163.1 246.297 161.24 246.036 159.249C245.938 158.694 245.857 158.09 245.775 157.503C245.677 156.72 245.579 155.92 245.498 155.104C245.318 153.684 245.139 152.2 244.976 150.682C244.698 147.794 244.437 144.71 244.176 141.479C244.062 139.961 243.931 138.395 243.85 136.828C243.736 135.229 243.654 133.581 243.556 131.9C243.442 129.697 243.328 127.429 243.246 125.096C243.197 124.378 243.181 123.66 243.164 122.942C243.05 120.151 242.969 117.312 242.92 114.375C242.871 113.314 242.854 112.253 242.854 111.176C242.838 109.789 242.805 108.37 242.789 106.934L249.284 106.934Z"
        fill="#EFE8D6" />
    <path
        d="M262.228 106.932C262.212 109.298 262.163 111.631 262.131 113.932C262.098 114.226 262.098 114.536 262.098 114.846C262.065 116.38 262.016 117.897 261.984 119.399C261.788 125.665 261.51 131.653 261.135 137.25C261.07 138.001 261.037 138.768 260.972 139.519C260.972 139.649 260.972 139.78 260.972 139.894C260.874 141.281 260.76 142.619 260.662 143.957C260.646 143.973 260.646 143.99 260.662 144.022C260.482 146.046 260.287 147.987 260.123 149.88C260.107 149.978 260.091 150.109 260.091 150.207C259.96 151.349 259.846 152.459 259.716 153.552C259.405 156.277 259.079 158.839 258.72 161.189C258.639 161.727 258.557 162.249 258.475 162.788C258.28 163.93 258.1 165.04 257.904 166.084C257.757 166.884 257.594 167.651 257.447 168.385C257.317 168.874 257.219 169.348 257.121 169.821C256.664 171.697 256.223 173.329 255.718 174.684C252.177 164.485 249.549 138.278 249.305 106.932L258.492 106.932C258.557 105.104 258.606 102.754 258.687 100.535C258.785 97.712 258.834 95.0848 258.818 94.0242L262.212 93.9915C262.228 94.3505 262.228 94.7095 262.228 95.0685C262.245 95.966 262.245 96.8961 262.245 97.7936C262.261 98.6911 262.261 99.6212 262.261 100.535L262.261 101.253C262.261 103.162 262.261 105.071 262.245 106.932L262.228 106.932Z"
        fill="#EFE8D6" />
    <path
        d="M265.781 100.531C265.748 68.7438 262.892 41.1828 258.764 27.1331C258.47 26.1214 258.144 25.175 257.834 24.2938C256.74 21.324 255.598 19.2026 254.391 18.142C260.314 20.7202 266.629 22.2378 273.091 22.8415C300.195 25.4361 320.429 51.2184 329.143 65.4639C330.432 65.4639 331.656 68.189 332.619 72.7906C333.973 79.1873 334.854 89.2064 334.903 100.531L334.903 101.249C334.903 103.175 334.887 105.084 334.838 106.928C334.593 116.196 333.777 124.257 332.619 129.707C331.656 134.309 330.432 137.018 329.143 137.018C321.098 150.758 301.631 176.393 273.45 179.379C266.874 180.097 260.445 181.696 254.391 184.34C255.566 183.328 256.642 181.354 257.703 178.563C258.062 177.584 258.405 176.491 258.764 175.332C262.696 162.05 265.438 136.594 265.748 106.928C265.781 105.051 265.781 103.158 265.781 101.249L265.781 100.531Z"
        fill="#EFE8D6" />
    <path
        d="M243.985 63.7833C244.148 61.2214 244.36 58.7248 244.556 56.3424C244.621 55.6896 244.687 55.0532 244.735 54.4168C244.882 52.883 245.029 51.3654 245.192 49.9131C245.241 49.6031 245.274 49.293 245.29 48.983C245.405 48.0692 245.519 47.1717 245.617 46.2905C246.955 35.7328 248.652 28.1777 250.545 25.0936C250.659 24.8814 250.789 24.7019 250.904 24.5551C251.034 24.3919 251.132 24.2777 251.263 24.1471C251.426 23.984 251.573 23.8534 251.752 23.7555C251.997 23.6086 252.242 23.527 252.486 23.527C252.976 23.527 253.449 23.8045 253.906 24.3103C254.559 25.0446 255.195 26.3174 255.783 28.0471C252.013 38.4906 249.305 66.9164 249.256 100.531L242.777 100.531C242.777 98.981 242.777 97.4145 242.794 95.8806C242.81 94.8037 242.81 93.7267 242.843 92.6497C242.859 91.3606 242.875 90.0715 242.892 88.7987C242.892 88.5213 242.924 88.2602 242.924 87.9991C242.957 86.0246 243.006 84.0991 243.055 82.2062C243.169 79.3506 243.267 76.5602 243.414 73.8025C243.495 71.8281 243.593 69.9025 243.724 68.0097C243.74 67.4222 243.773 66.8185 243.822 66.1984C243.854 65.3825 243.92 64.5829 243.985 63.7833Z"
        fill="#EFE8D6" />
    <path
        d="M242.793 106.93C242.809 108.366 242.842 109.786 242.858 111.173C242.858 112.25 242.858 113.31 242.924 114.371C242.973 117.308 243.054 120.148 243.168 122.938C243.185 123.656 243.201 124.374 243.25 125.092C243.332 127.425 243.446 129.694 243.56 131.896C243.658 133.577 243.74 135.225 243.854 136.824C243.935 138.391 244.066 139.957 244.18 141.475C244.441 144.706 244.702 147.79 244.98 150.678C245.143 152.196 245.322 153.681 245.502 155.1C245.583 155.916 245.681 156.716 245.779 157.499C245.861 158.087 245.942 158.69 246.04 159.245C246.301 161.236 246.611 163.096 246.921 164.793C247.019 165.446 247.134 166.082 247.264 166.703C247.264 166.735 247.264 166.768 247.28 166.784C247.411 167.437 247.525 168.057 247.656 168.644C247.737 168.971 247.803 169.281 247.852 169.574C247.982 170.048 248.08 170.521 248.211 170.961C248.88 173.687 249.614 175.775 250.397 177.13C250.462 177.277 250.544 177.407 250.626 177.521C250.821 177.848 251.034 178.125 251.262 178.321C251.344 178.419 251.425 178.484 251.507 178.549C251.833 178.81 252.16 178.957 252.486 178.957C252.975 178.957 253.449 178.68 253.906 178.158C254.542 177.456 255.129 176.281 255.701 174.682C256.206 173.328 256.647 171.696 257.104 169.819C257.202 169.346 257.3 168.873 257.43 168.383C257.577 167.649 257.74 166.882 257.887 166.082C258.083 165.038 258.262 163.928 258.458 162.786C258.54 162.248 258.621 161.726 258.703 161.187C259.062 158.837 259.388 156.275 259.698 153.55C259.829 152.457 259.943 151.347 260.074 150.205C260.074 150.107 260.09 149.977 260.106 149.879C260.27 147.986 260.465 146.044 260.645 144.021C260.629 143.988 260.629 143.972 260.645 143.955C260.743 142.617 260.857 141.279 260.955 139.892C260.955 139.778 260.955 139.647 260.955 139.517C261.02 138.766 261.053 137.999 261.118 137.249C261.493 131.652 261.771 125.663 261.967 119.397C261.999 117.896 262.048 116.378 262.081 114.844C262.081 114.534 262.081 114.224 262.113 113.93C262.146 111.63 262.195 109.296 262.211 106.93C262.228 105.07 262.228 103.161 262.228 101.251L262.228 100.533C262.228 99.6196 262.228 98.6895 262.211 97.792C262.211 96.8945 262.211 95.9644 262.195 95.0669C262.195 94.7079 262.195 94.3489 262.179 93.9899C262.016 78.1616 261.216 63.7365 260.041 52.0855C259.911 50.9107 259.796 49.7684 259.666 48.6588C259.437 46.668 259.193 44.7751 258.931 42.9639C258.85 42.3927 258.768 41.8379 258.687 41.2831C258.197 38.0032 257.659 35.1149 257.088 32.6509C256.647 30.8723 256.223 29.3384 255.766 28.0493C255.178 26.3196 254.542 25.0468 253.889 24.3125C253.432 23.8066 252.959 23.5292 252.47 23.5292C252.225 23.5292 251.98 23.6108 251.735 23.7577C251.556 23.8556 251.409 23.9861 251.246 24.1493C251.115 24.2798 251.017 24.3941 250.887 24.5573C250.773 24.7041 250.642 24.8836 250.528 25.0957C248.635 28.1798 246.938 35.735 245.6 46.2927C245.502 47.1739 245.388 48.0713 245.273 48.9851C245.257 49.2952 245.224 49.6052 245.175 49.9153C245.012 51.3676 244.865 52.8851 244.719 54.419C244.67 55.0554 244.604 55.6918 244.539 56.3445C244.343 58.7269 244.131 61.2236 243.968 63.7855C243.903 64.5851 243.837 65.3846 243.805 66.2005C243.756 66.8206 243.723 67.4244 243.707 68.0118C243.576 69.9047 243.478 71.8302 243.397 73.8047C243.25 76.5624 243.152 79.3528 243.038 82.2084C242.989 84.1013 242.94 86.0268 242.907 88.0013C242.907 88.2624 242.875 88.5234 242.875 88.8008C242.858 90.0736 242.842 91.3627 242.826 92.6519C242.793 93.7288 242.793 94.8058 242.777 95.8828C242.76 97.4167 242.76 98.9832 242.76 100.533L239.203 100.533C239.268 54.468 245.192 17.2631 252.47 17.2631L252.567 17.3284C253.188 17.6058 253.791 17.8995 254.379 18.1443C255.586 19.205 256.729 21.3263 257.822 24.2962C258.132 25.1773 258.458 26.1238 258.752 27.1355C262.88 41.1852 265.736 68.7461 265.769 100.533L265.769 101.251C265.769 103.161 265.769 105.053 265.736 106.93C265.426 136.596 262.685 162.052 258.752 175.335C258.393 176.493 258.05 177.587 257.691 178.566C256.631 181.356 255.554 183.33 254.379 184.342C253.742 184.62 253.106 184.897 252.47 185.207C245.469 185.207 239.709 150.646 239.252 106.93L242.777 106.93L242.793 106.93Z"
        fill="#EFE8D6" />
    <path
        d="M334.909 100.533C334.86 89.2081 333.979 79.1889 332.624 72.7922C331.661 68.1906 330.438 65.4655 329.148 65.4655L336.1 65.4655C339.249 65.4655 341.811 81.1144 341.876 100.533L341.876 101.251C341.876 103.176 341.876 105.085 341.811 106.929C341.354 123.965 338.988 137.02 336.1 137.02L329.148 137.02C330.438 137.02 331.661 134.311 332.624 129.709C333.783 124.259 334.599 116.198 334.843 106.929C334.892 105.085 334.909 103.176 334.909 101.251L334.909 100.533Z"
        fill="#EFE8D6" />
    <path
        d="M341.874 100.537L375.717 100.537L375.717 106.934L341.809 106.934C341.858 105.09 341.874 103.18 341.874 101.255L341.874 100.537Z"
        fill="#EFE8D6" />
    <path d="M239.223 100.531C239.288 54.4658 245.211 17.261 252.489 17.261L239.223 100.531Z" fill="#EFE8D6" />
    <path d="M239.223 100.531C239.288 54.4658 245.211 17.261 252.489 17.261" stroke="#FFB802" stroke-width="1.63179"
        stroke-linecap="round" stroke-linejoin="round" />
    <path d="M252.483 185.207C245.483 185.207 239.723 150.646 239.266 106.93L252.483 185.207Z" fill="#EFE8D6" />
    <path d="M252.483 185.207C245.483 185.207 239.723 150.646 239.266 106.93" stroke="#FFB802" stroke-width="1.63179"
        stroke-linecap="round" stroke-linejoin="round" />
    <path
        d="M254.394 184.342C253.773 184.897 253.137 185.207 252.484 185.207C253.121 184.897 253.757 184.62 254.394 184.342Z"
        fill="#EFE8D6" stroke="#FFB802" stroke-width="1.63179" stroke-linecap="round" stroke-linejoin="round" />
    <path
        d="M255.784 28.0509C256.241 29.34 256.665 30.8739 257.106 32.6525C257.677 35.1165 258.215 38.0048 258.705 41.2847C258.787 41.8395 258.868 42.3943 258.95 42.9654C259.211 44.7767 259.456 46.6696 259.684 48.6604C259.815 49.77 259.929 50.9123 260.059 52.0871C261.234 63.7381 262.034 78.1632 262.197 93.9915C262.213 94.3505 262.213 94.7095 262.213 95.0685C262.23 95.966 262.23 96.8961 262.23 97.7936C262.246 98.6911 262.246 99.6212 262.246 100.535L262.246 101.253C262.246 103.162 262.246 105.071 262.23 106.932C262.213 109.298 262.164 111.631 262.132 113.932C262.099 114.226 262.099 114.536 262.099 114.846C262.066 116.38 262.017 117.897 261.985 119.399C261.789 125.665 261.512 131.653 261.136 137.25C261.071 138.001 261.038 138.768 260.973 139.519C260.973 139.649 260.973 139.78 260.973 139.894C260.875 141.281 260.761 142.619 260.663 143.957C260.647 143.973 260.647 143.99 260.663 144.022C260.484 146.046 260.288 147.987 260.125 149.88C260.108 149.978 260.092 150.109 260.092 150.207C259.961 151.349 259.847 152.459 259.717 153.552C259.407 156.277 259.08 158.839 258.721 161.189C258.64 161.727 258.558 162.249 258.476 162.788C258.281 163.93 258.101 165.04 257.905 166.084C257.759 166.884 257.595 167.651 257.448 168.385C257.318 168.874 257.22 169.348 257.122 169.821C256.665 171.697 256.225 173.329 255.719 174.684"
        fill="#EFE8D6" />
    <path
        d="M255.784 28.0509C256.241 29.34 256.665 30.8739 257.106 32.6525C257.677 35.1165 258.215 38.0048 258.705 41.2847C258.787 41.8395 258.868 42.3943 258.95 42.9654C259.211 44.7767 259.456 46.6696 259.684 48.6604C259.815 49.77 259.929 50.9123 260.059 52.0871C261.234 63.7381 262.034 78.1632 262.197 93.9915C262.213 94.3505 262.213 94.7095 262.213 95.0685C262.23 95.966 262.23 96.8961 262.23 97.7936C262.246 98.6911 262.246 99.6212 262.246 100.535L262.246 101.253C262.246 103.162 262.246 105.071 262.23 106.932C262.213 109.298 262.164 111.631 262.132 113.932C262.099 114.226 262.099 114.536 262.099 114.846C262.066 116.38 262.017 117.897 261.985 119.399C261.789 125.665 261.512 131.653 261.136 137.25C261.071 138.001 261.038 138.768 260.973 139.519C260.973 139.649 260.973 139.78 260.973 139.894C260.875 141.281 260.761 142.619 260.663 143.957C260.647 143.973 260.647 143.99 260.663 144.022C260.484 146.046 260.288 147.987 260.125 149.88C260.108 149.978 260.092 150.109 260.092 150.207C259.961 151.349 259.847 152.459 259.717 153.552C259.407 156.277 259.08 158.839 258.721 161.189C258.64 161.727 258.558 162.249 258.476 162.788C258.281 163.93 258.101 165.04 257.905 166.084C257.759 166.884 257.595 167.651 257.448 168.385C257.318 168.874 257.22 169.348 257.122 169.821C256.665 171.697 256.225 173.329 255.719 174.684"
        stroke="#FFB802" stroke-width="1.63179" stroke-linecap="round" stroke-linejoin="round" />
    <path
        d="M249.284 106.934C249.528 138.28 252.156 164.487 255.697 174.686C255.125 176.285 254.538 177.46 253.902 178.161C253.445 178.684 252.971 178.961 252.482 178.961C252.156 178.961 251.829 178.814 251.503 178.553C251.421 178.488 251.34 178.422 251.258 178.325C251.03 178.129 250.817 177.851 250.622 177.525C250.54 177.411 250.458 177.28 250.393 177.133C249.61 175.779 248.876 173.69 248.207 170.965C248.076 170.525 247.978 170.051 247.848 169.578C247.799 169.284 247.733 168.974 247.652 168.648C247.521 168.061 247.407 167.44 247.276 166.788C247.26 166.788 247.26 166.739 247.26 166.706C247.13 166.086 247.015 165.45 246.917 164.797C246.607 163.1 246.297 161.24 246.036 159.249C245.938 158.694 245.857 158.09 245.775 157.503C245.677 156.72 245.579 155.92 245.498 155.104C245.318 153.684 245.139 152.2 244.976 150.682C244.698 147.794 244.437 144.71 244.176 141.479C244.062 139.961 243.931 138.395 243.85 136.828C243.736 135.229 243.654 133.581 243.556 131.9C243.442 129.697 243.328 127.429 243.246 125.096C243.197 124.378 243.181 123.66 243.164 122.942C243.05 120.151 242.969 117.312 242.92 114.375C242.871 113.314 242.854 112.253 242.854 111.176C242.838 109.789 242.805 108.37 242.789 106.934"
        fill="#EFE8D6" />
    <path
        d="M249.284 106.934C249.528 138.28 252.156 164.487 255.697 174.686C255.125 176.285 254.538 177.46 253.902 178.161C253.445 178.684 252.971 178.961 252.482 178.961C252.156 178.961 251.829 178.814 251.503 178.553C251.421 178.488 251.34 178.422 251.258 178.325C251.03 178.129 250.817 177.851 250.622 177.525C250.54 177.411 250.458 177.28 250.393 177.133C249.61 175.779 248.876 173.69 248.207 170.965C248.076 170.525 247.978 170.051 247.848 169.578C247.799 169.284 247.733 168.974 247.652 168.648C247.521 168.061 247.407 167.44 247.276 166.788C247.26 166.788 247.26 166.739 247.26 166.706C247.13 166.086 247.015 165.45 246.917 164.797C246.607 163.1 246.297 161.24 246.036 159.249C245.938 158.694 245.857 158.09 245.775 157.503C245.677 156.72 245.579 155.92 245.498 155.104C245.318 153.684 245.139 152.2 244.976 150.682C244.698 147.794 244.437 144.71 244.176 141.479C244.062 139.961 243.931 138.395 243.85 136.828C243.736 135.229 243.654 133.581 243.556 131.9C243.442 129.697 243.328 127.429 243.246 125.096C243.197 124.378 243.181 123.66 243.164 122.942C243.05 120.151 242.969 117.312 242.92 114.375C242.871 113.314 242.854 112.253 242.854 111.176C242.838 109.789 242.805 108.37 242.789 106.934"
        stroke="#FFB802" stroke-width="1.63179" stroke-linecap="round" stroke-linejoin="round" />
    <path
        d="M242.777 100.531C242.777 98.981 242.777 97.4145 242.794 95.8806C242.81 94.8037 242.81 93.7267 242.843 92.6497C242.859 91.3606 242.875 90.0715 242.892 88.7987C242.892 88.5213 242.924 88.2602 242.924 87.9991C242.957 86.0246 243.006 84.0991 243.055 82.2062C243.169 79.3506 243.267 76.5602 243.414 73.8025C243.495 71.8281 243.593 69.9025 243.724 68.0097C243.74 67.4222 243.773 66.8185 243.822 66.1984C243.854 65.3825 243.92 64.5829 243.985 63.7833C244.148 61.2214 244.36 58.7248 244.556 56.3424C244.621 55.6896 244.687 55.0532 244.735 54.4168C244.882 52.883 245.029 51.3654 245.192 49.9131C245.241 49.6031 245.274 49.293 245.29 48.983C245.405 48.0692 245.519 47.1717 245.617 46.2905C246.955 35.7328 248.652 28.1777 250.545 25.0936C250.659 24.8814 250.789 24.7019 250.904 24.5551C251.034 24.3919 251.132 24.2777 251.263 24.1471C251.426 23.984 251.573 23.8534 251.752 23.7555C251.997 23.6086 252.242 23.527 252.486 23.527C252.976 23.527 253.449 23.8045 253.906 24.3103C254.559 25.0446 255.195 26.3174 255.783 28.0471C252.013 38.4906 249.305 66.9164 249.256 100.531"
        fill="#EFE8D6" />
    <path
        d="M242.777 100.531C242.777 98.981 242.777 97.4145 242.794 95.8806C242.81 94.8037 242.81 93.7267 242.843 92.6497C242.859 91.3606 242.875 90.0715 242.892 88.7987C242.892 88.5213 242.924 88.2602 242.924 87.9991C242.957 86.0246 243.006 84.0991 243.055 82.2062C243.169 79.3506 243.267 76.5603 243.414 73.8025C243.495 71.8281 243.593 69.9025 243.724 68.0097C243.74 67.4222 243.773 66.8185 243.822 66.1984C243.854 65.3825 243.92 64.5829 243.985 63.7833C244.148 61.2214 244.36 58.7248 244.556 56.3424C244.621 55.6896 244.687 55.0532 244.735 54.4168C244.882 52.883 245.029 51.3654 245.192 49.9131C245.241 49.6031 245.274 49.293 245.29 48.983C245.405 48.0692 245.519 47.1717 245.617 46.2905C246.955 35.7328 248.652 28.1776 250.545 25.0936C250.659 24.8814 250.789 24.7019 250.904 24.5551C251.034 24.3919 251.132 24.2777 251.263 24.1471C251.426 23.984 251.573 23.8534 251.752 23.7555C251.997 23.6086 252.242 23.527 252.486 23.527C252.976 23.527 253.449 23.8045 253.906 24.3103C254.559 25.0446 255.195 26.3174 255.783 28.0471C252.013 38.4906 249.305 66.9164 249.256 100.531"
        stroke="#FFB802" stroke-width="1.63179" stroke-linecap="round" stroke-linejoin="round" />
    <path
        d="M252.484 17.2634C253.137 17.2634 253.773 17.5734 254.394 18.1445C253.806 17.8998 253.202 17.606 252.582 17.3286L252.484 17.2634Z"
        fill="#EFE8D6" stroke="#FFB802" stroke-width="1.63179" stroke-linecap="round" stroke-linejoin="round" />
    <path
        d="M329.143 137.018C321.098 150.758 301.631 176.393 273.45 179.379C266.874 180.097 260.445 181.696 254.391 184.34C255.566 183.328 256.642 181.354 257.703 178.563C258.062 177.584 258.405 176.491 258.764 175.332C262.696 162.05 265.438 136.594 265.748 106.928C265.781 105.051 265.781 103.158 265.781 101.249L265.781 100.531C265.748 68.7438 262.892 41.1828 258.764 27.1331C258.47 26.1214 258.144 25.175 257.834 24.2938C256.74 21.324 255.598 19.2026 254.391 18.142C260.314 20.7202 266.629 22.2378 273.091 22.8415C300.195 25.4361 320.429 51.2184 329.143 65.4639"
        fill="#EFE8D6" />
    <path
        d="M329.143 137.018C321.098 150.758 301.631 176.393 273.45 179.379C266.874 180.097 260.445 181.696 254.391 184.34C255.566 183.328 256.642 181.354 257.703 178.563C258.062 177.584 258.405 176.491 258.764 175.332C262.696 162.05 265.438 136.594 265.748 106.928C265.781 105.051 265.781 103.158 265.781 101.249L265.781 100.531C265.748 68.7438 262.892 41.1828 258.764 27.1331C258.47 26.1214 258.144 25.175 257.834 24.2938C256.74 21.324 255.598 19.2026 254.391 18.142C260.314 20.7202 266.629 22.2378 273.091 22.8415C300.195 25.4361 320.429 51.2184 329.143 65.4639"
        stroke="#FFB802" stroke-width="1.63179" stroke-linecap="round" stroke-linejoin="round" />
    <path
        d="M341.811 106.929C341.354 123.965 338.988 137.02 336.1 137.02L329.148 137.02C330.438 137.02 331.661 134.311 332.624 129.709C333.783 124.259 334.599 116.198 334.843 106.929C334.892 105.085 334.909 103.176 334.909 101.251L334.909 100.533C334.86 89.2081 333.979 79.1889 332.624 72.7922C331.661 68.1906 330.438 65.4655 329.148 65.4655L336.1 65.4655C339.249 65.4655 341.811 81.1144 341.876 100.533"
        fill="#EFE8D6" />
    <path
        d="M341.811 106.929C341.354 123.965 338.988 137.02 336.1 137.02L329.148 137.02C330.438 137.02 331.661 134.311 332.624 129.709C333.783 124.259 334.599 116.198 334.843 106.929C334.892 105.085 334.909 103.176 334.909 101.251L334.909 100.533C334.86 89.2081 333.979 79.1889 332.624 72.7922C331.661 68.1906 330.438 65.4655 329.148 65.4655L336.1 65.4655C339.249 65.4655 341.811 81.1144 341.876 100.533"
        stroke="#FFB802" stroke-width="1.63179" stroke-linecap="round" stroke-linejoin="round" />
    <path
        d="M258.427 124.359C258.068 132.942 257.497 138.441 256.86 138.441C256.224 138.441 255.636 132.665 255.277 123.723"
        fill="#EFE8D6" />
    <path
        d="M258.427 124.359C258.068 132.942 257.497 138.441 256.86 138.441C256.224 138.441 255.636 132.665 255.277 123.723"
        stroke="#FFB802" stroke-width="1.63179" stroke-linecap="round" stroke-linejoin="round" />
    <path d="M258.475 106.928C258.458 108.136 258.426 109.131 258.426 109.719L258.475 106.928Z" fill="#EFE8D6" />
    <path d="M258.475 106.928C258.458 108.136 258.426 109.131 258.426 109.719" stroke="#FFB802" stroke-width="1.63179"
        stroke-linecap="round" stroke-linejoin="round" />
    <path
        d="M255.195 81.4393C255.538 71.4201 256.158 64.795 256.86 64.795C257.823 64.795 258.622 77.3435 258.802 94.0204C258.818 95.0811 258.769 97.7083 258.671 100.531"
        fill="#EFE8D6" />
    <path
        d="M255.195 81.4393C255.538 71.4201 256.158 64.795 256.86 64.795C257.823 64.795 258.622 77.3435 258.802 94.0204C258.818 95.0811 258.769 97.7083 258.671 100.531"
        stroke="#FFB802" stroke-width="1.63179" stroke-linecap="round" stroke-linejoin="round" />
    <path d="M213.515 100.537L258.667 100.537C258.585 102.756 258.536 105.106 258.471 106.934L209.664 106.934"
        fill="#EFE8D6" />
    <path d="M213.515 100.537L258.667 100.537C258.585 102.756 258.536 105.106 258.471 106.934L209.664 106.934"
        stroke="#FFB802" stroke-width="1.63179" stroke-miterlimit="10" />
    <path d="M74.6686 106.934L35.3751 106.934L27.7383 103.572L35.4077 100.537L77.9811 100.537" fill="#EFE8D6" />
    <path d="M74.6686 106.934L35.3751 106.934L27.7383 103.572L35.4077 100.537L77.9811 100.537" stroke="#FFB802"
        stroke-width="1.63179" stroke-miterlimit="10" />
    <path
        d="M341.874 100.537L375.717 100.537L375.717 106.934L341.809 106.934C341.858 105.09 341.874 103.18 341.874 101.255L341.874 100.537Z"
        fill="#EFE8D6" stroke="#FFB802" stroke-width="1.63179" stroke-miterlimit="10" />
    <path
        d="M186.184 151.25C183.459 156.292 180.734 161.106 179.379 164.288C177.976 167.65 174.582 169.885 170.975 169.445C164.611 168.694 167.304 162.134 167.304 162.134"
        fill="#EFE8D6" />
    <path
        d="M186.184 151.25C183.459 156.292 180.734 161.106 179.379 164.288C177.976 167.65 174.582 169.885 170.975 169.445C164.611 168.694 167.304 162.134 167.304 162.134"
        stroke="#FFB802" stroke-width="1.63179" stroke-miterlimit="10" />
    <path
        d="M229.571 75.042C228.168 78.5178 227.009 81.1939 221.347 88.6349C219.421 91.1478 216.631 95.4394 213.514 100.531C212.274 102.538 210.985 104.692 209.663 106.927C208.113 109.538 206.546 112.263 204.996 114.988"
        fill="#EFE8D6" />
    <path
        d="M229.571 75.042C228.168 78.5178 227.009 81.1939 221.347 88.6349C219.421 91.1478 216.631 95.4394 213.514 100.531C212.274 102.538 210.985 104.692 209.663 106.927C208.113 109.538 206.546 112.263 204.996 114.988"
        stroke="#FFB802" stroke-width="1.63179" stroke-miterlimit="10" />
    <path
        d="M206.711 57.9425C206.809 57.8609 206.907 57.7956 207.005 57.714C207.054 57.6977 207.086 57.6651 207.119 57.6324C208.669 56.6697 210.954 56.0659 214.756 55.8538C227.174 55.1195 232.771 67.5211 230.617 72.5144C230.225 73.4282 229.899 74.2441 229.589 74.9947C229.589 74.9947 229.589 75.0273 229.572 75.0436C229.393 75.321 228.381 76.8386 226.7 77.9645C226.456 78.144 226.211 78.3072 225.95 78.4378C225.754 78.552 225.558 78.6499 225.346 78.7315C224.775 78.9926 224.122 79.1884 223.437 79.2863C223.176 79.3189 222.882 79.3516 222.621 79.3516C221.789 79.3516 220.859 79.2047 219.879 78.8294C218.362 78.2583 217.024 77.2629 215.963 76.0064L213.434 73.0365"
        fill="#EFE8D6" />
    <path
        d="M206.711 57.9425C206.809 57.8609 206.907 57.7956 207.005 57.714C207.054 57.6977 207.086 57.6651 207.119 57.6324C208.669 56.6697 210.954 56.0659 214.756 55.8538C227.174 55.1195 232.771 67.5211 230.617 72.5144C230.225 73.4282 229.899 74.2441 229.589 74.9947C229.589 74.9947 229.589 75.0273 229.572 75.0436C229.393 75.321 228.381 76.8386 226.7 77.9645C226.456 78.144 226.211 78.3072 225.95 78.4378C225.754 78.552 225.558 78.6499 225.346 78.7315C224.775 78.9926 224.122 79.1884 223.437 79.2863C223.176 79.3189 222.882 79.3516 222.621 79.3516C221.789 79.3516 220.859 79.2047 219.879 78.8294C218.362 78.2583 217.024 77.2629 215.963 76.0064L213.434 73.0365"
        stroke="#FFB802" stroke-width="1.63179" stroke-miterlimit="10" />
    <path
        d="M211.17 64.4727C209.848 63.771 208.02 62.3187 209.277 60.23C210.566 58.0924 213.944 57.6681 217.044 58.2882"
        fill="#EFE8D6" />
    <path
        d="M211.17 64.4727C209.848 63.771 208.02 62.3187 209.277 60.23C210.566 58.0924 213.944 57.6681 217.044 58.2882"
        stroke="#FFB802" stroke-width="1.63179" stroke-miterlimit="10" />
    <path
        d="M211.168 64.4708C211.804 64.8298 212.31 65.0093 212.31 65.0093L213.077 62.5127C213.077 62.5127 211.429 60.6851 214.007 60.4403C214.007 60.4403 221.889 63.3939 216.553 66.4943C216.553 66.4943 212.18 68.3382 211.168 64.4708Z"
        fill="#EFE8D6" stroke="#FFB802" stroke-width="1.63179" stroke-miterlimit="10" />
    <path
        d="M206.711 57.9453C206.809 57.8474 206.907 57.7658 207.005 57.7169C207.037 57.6842 207.086 57.6679 207.135 57.6516"
        fill="#EFE8D6" />
    <path
        d="M206.711 57.9453C206.809 57.8474 206.907 57.7658 207.005 57.7169C207.037 57.6842 207.086 57.6679 207.135 57.6516"
        stroke="#FFB802" stroke-width="1.63179" stroke-miterlimit="10" />
    <path
        d="M205.002 114.987C206.063 121.661 206.993 127.16 207.58 130.228C209.196 138.828 209.082 149.581 210.24 155.358C210.991 158.931 209.441 162.701 206.21 164.382C200.531 167.351 198.018 161.314 198.018 161.314C194.51 166.226 192.454 164.92 190.185 163.647C187.852 162.375 186.53 159.813 186.449 157.153C186.383 155.423 186.285 153.416 186.187 151.246C188.097 147.705 189.99 144.033 191.458 140.737C192.551 138.224 194.249 134.765 196.337 130.783C196.337 130.767 196.354 130.767 196.354 130.75C198.85 125.969 201.869 120.454 205.002 114.987Z"
        fill="#EFE8D6" stroke="#FFB802" stroke-width="1.63179" stroke-miterlimit="10" />
    <path d="M180.85 106.934L151.723 106.934" stroke="#FFB802" stroke-width="1.63179" stroke-miterlimit="10" />
    <path d="M152.359 100.531L179.61 100.531" stroke="#FFB802" stroke-width="1.63179" stroke-miterlimit="10" />
    <path d="M181.011 107.762C180.946 107.484 180.913 107.207 180.848 106.93L181.419 106.93" fill="#EFE8D6" />
    <path d="M181.011 107.762C180.946 107.484 180.913 107.207 180.848 106.93L181.419 106.93" stroke="#FFB802"
        stroke-width="1.63179" stroke-miterlimit="10" />
    <path d="M168.562 38.4414C168.562 38.4414 168.595 38.3272 168.611 38.2619L168.562 38.4414Z" fill="#EFE8D6" />
    <path d="M168.562 38.4414C168.562 38.4414 168.595 38.3272 168.611 38.2619" stroke="#FFB802" stroke-width="1.63179"
        stroke-miterlimit="10" />
    <path
        d="M184.733 100.531L179.609 100.531C176.117 82.5652 171.254 58.17 170.602 51.3817C169.982 45.034 167.322 42.0152 168.529 38.4743C168.529 38.4743 168.529 38.4579 168.546 38.4579"
        fill="#EFE8D6" />
    <path
        d="M184.733 100.531L179.609 100.531C176.117 82.5652 171.254 58.17 170.602 51.3817C169.982 45.034 167.322 42.0152 168.529 38.4743C168.529 38.4743 168.529 38.4579 168.546 38.4579"
        stroke="#FFB802" stroke-width="1.63179" stroke-miterlimit="10" />
    <path
        d="M197.07 39.7015C197.87 43.373 198.441 46.245 197.951 55.5788C197.788 58.8587 198.294 65.3859 199.192 73.3164"
        fill="#EFE8D6" />
    <path
        d="M197.07 39.7015C197.87 43.373 198.441 46.245 197.951 55.5788C197.788 58.8587 198.294 65.3859 199.192 73.3164"
        stroke="#FFB802" stroke-width="1.63179" stroke-miterlimit="10" />
    <path
        d="M168.723 38.016L168.723 37.9996C169.441 36.3352 171.007 34.5402 174.01 32.2231C183.849 24.619 195.468 31.6846 196.512 37.0532C196.708 38.016 196.871 38.8645 197.067 39.6641"
        fill="#EFE8D6" />
    <path
        d="M168.723 38.016L168.723 37.9996C169.441 36.3352 171.007 34.5402 174.01 32.2231C183.849 24.619 195.468 31.6846 196.512 37.0532C196.708 38.016 196.871 38.8645 197.067 39.6641"
        stroke="#FFB802" stroke-width="1.63179" stroke-miterlimit="10" />
    <path
        d="M217.061 58.3041C218.415 58.5652 219.721 59.0547 220.765 59.6748C226.852 63.3463 230.621 72.517 224.796 75.5521C218.954 78.5709 216.163 72.0437 216.163 72.0437C216.163 72.0437 215.152 70.7709 214.401 70.7709C214.042 70.7709 213.732 71.0973 213.667 72.0274C213.65 72.3864 213.569 72.7291 213.438 73.0391C212.606 75.291 209.734 77.037 208.478 80.6759C207.025 84.837 209.701 86.6646 206.063 92.4738C205.23 93.7955 203.99 96.0311 202.538 98.8214C202.26 99.3762 201.967 99.9474 201.657 100.535C201.037 101.726 200.417 102.982 199.748 104.272C199.421 104.924 199.079 105.577 198.752 106.262C198.622 106.491 198.524 106.703 198.393 106.931C198.099 107.552 197.757 108.172 197.463 108.808C196.941 109.82 196.419 110.864 195.897 111.892C195.472 112.773 195.015 113.654 194.591 114.519C191.556 120.573 188.651 126.366 186.693 129.858C186.187 130.788 185.551 131.914 184.833 133.154C178.91 143.386 167.308 162.135 167.308 162.135C161.645 164.207 159.051 162.38 157.892 160.046C156.685 157.68 157.06 154.808 158.48 152.589C163.767 144.234 171.664 127.655 176.446 117.163C177.604 114.666 179.187 111.403 181.015 107.764C181.161 107.486 181.292 107.225 181.423 106.931C181.471 106.85 181.504 106.752 181.569 106.67C182.01 105.822 182.434 104.99 182.859 104.108C183.479 102.934 184.099 101.759 184.735 100.535C186.612 96.8796 188.651 93.0449 190.593 89.357C193.857 83.2052 196.957 77.4286 199.193 73.3165C199.96 71.9295 200.612 70.722 201.151 69.7592C204.219 64.1785 203.729 60.1969 206.715 57.9451C204.676 60.0338 206.944 70.5262 214.368 70.1835C215.396 70.1345 216.555 69.8735 217.795 69.3513C228.239 64.9128 217.55 58.5978 217.061 58.3041Z"
        fill="#EFE8D6" stroke="#FFB802" stroke-width="1.63179" stroke-miterlimit="10" />
    <path
        d="M175.92 41.3847C174.419 41.5479 172.102 41.3847 171.955 38.9534C171.808 36.4567 174.37 34.2048 177.259 32.9647C178.548 32.4262 179.902 32.0835 181.11 32.0019C188.224 31.6103 196.514 37.0605 193.397 42.837C190.297 48.6136 184.308 44.8278 184.308 44.8278C184.308 44.8278 183.035 44.4362 182.35 44.6646C181.877 44.8115 181.664 45.2358 182.236 46.1985C182.415 46.5085 182.529 46.8349 182.595 47.1613L182.611 47.1776C183.182 49.5111 181.811 52.5462 182.807 56.283C183.965 60.5419 187.212 60.542 187.474 67.3955C187.588 70.3327 188.975 79.2912 190.59 89.3594"
        fill="#EFE8D6" />
    <path
        d="M175.92 41.3847C174.419 41.5479 172.102 41.3847 171.955 38.9534C171.808 36.4567 174.37 34.2048 177.259 32.9647C178.548 32.4262 179.902 32.0835 181.11 32.0019C188.224 31.6103 196.514 37.0605 193.397 42.837C190.297 48.6136 184.308 44.8278 184.308 44.8278C184.308 44.8278 183.035 44.4362 182.35 44.6646C181.877 44.8115 181.664 45.2358 182.236 46.1985C182.415 46.5085 182.529 46.8349 182.595 47.1613L182.611 47.1776C183.182 49.5111 181.811 52.5462 182.807 56.283C183.965 60.5419 187.212 60.542 187.474 67.3955C187.588 70.3327 188.975 79.2912 190.59 89.3594"
        stroke="#FFB802" stroke-width="1.63179" stroke-miterlimit="10" />
    <path
        d="M175.922 41.3782C176.623 41.313 177.145 41.1661 177.145 41.1661L176.378 38.6858C176.378 38.6858 173.996 38.1146 175.97 36.4502C175.97 36.4502 184.146 34.4431 181.502 40.0075C181.502 40.0075 178.924 43.9891 175.922 41.3782Z"
        fill="#EFE8D6" stroke="#FFB802" stroke-width="1.63179" stroke-miterlimit="10" />
    <path d="M198.017 161.316C198.017 161.316 197.168 142.959 196.336 130.786L196.336 130.753" fill="#EFE8D6" />
    <path d="M198.017 161.316C198.017 161.316 197.168 142.959 196.336 130.786L196.336 130.753" stroke="#FFB802"
        stroke-width="1.63179" stroke-miterlimit="10" />
    <path
        d="M177.257 32.9659C177.257 32.9659 190.393 31.889 184.127 41.6797C183.539 42.6098 182.903 43.3441 182.234 43.9316C176.229 49.2186 167.939 41.4023 168.543 38.4651L168.543 38.4488C168.543 38.4488 168.576 38.3345 168.608 38.2693C168.608 38.1877 168.673 38.1061 168.722 38.0245"
        fill="#EFE8D6" />
    <path
        d="M177.257 32.9659C177.257 32.9659 190.393 31.889 184.127 41.6797C183.539 42.6098 182.903 43.3441 182.234 43.9316C176.229 49.2186 167.939 41.4023 168.543 38.4651L168.543 38.4488C168.543 38.4488 168.576 38.3345 168.608 38.2693C168.608 38.1877 168.673 38.1061 168.722 38.0245"
        stroke="#FFB802" stroke-width="1.63179" stroke-miterlimit="10" />
    <path
        d="M197.071 39.67L197.071 39.7026C197.087 40.2574 197.218 46.8499 191.213 48.3185C189.614 48.7101 187.949 48.6285 186.366 48.1879L182.613 47.1599"
        fill="#EFE8D6" />
    <path
        d="M197.071 39.67L197.071 39.7026C197.087 40.2574 197.218 46.8499 191.213 48.3185C189.614 48.7101 187.949 48.6285 186.366 48.1879L182.613 47.1599"
        stroke="#FFB802" stroke-width="1.63179" stroke-miterlimit="10" />
    <path
        d="M77.9829 100.532L74.6703 106.929L74.4745 107.288L49.3939 155.361L47.1094 159.734C47.5663 159.979 48.6596 160.533 48.7085 160.55C83.9226 178.304 126.871 164.221 144.723 129.056C148.346 121.909 150.646 114.452 151.723 106.929C152.034 104.808 152.246 102.67 152.36 100.532C153.845 73.1021 139.371 46.0796 113.295 32.8458L110.537 38.1328L77.9829 100.532Z"
        fill="#EFE8D6" stroke="#FFB802" stroke-width="1.63179" stroke-miterlimit="10" />
    <path
        d="M77.9983 109.133C78.4552 108.122 79.0264 107.404 79.6628 106.93C80.854 106.033 82.2736 106.098 83.3996 106.93C84.2644 107.583 84.9987 108.725 85.3251 110.243C85.374 110.471 85.423 110.7 85.4556 110.928L93.3698 151.087C93.9246 155.117 91.0364 157.597 87.0058 158.071C79.0264 159.001 67.4407 156.847 61.9089 153.763C60.1139 152.767 58.8248 151.168 59.6733 148.884L77.9983 109.133Z"
        fill="#EFE8D6" stroke="#FFB802" stroke-width="1.63179" stroke-miterlimit="10" />
    <path
        d="M93.5797 104.732C93.7265 104.878 93.8897 105.042 94.0366 105.221L95.6683 106.934L122.218 134.822C124.779 137.759 123.523 140.451 121.108 143.16C116.327 148.464 106.879 152.804 101.575 153.489C99.8457 153.718 98.1324 153.13 97.4796 150.797L88.4721 109.562L88.1295 108.011C88.0479 107.636 87.9826 107.261 87.9337 106.934C87.6073 103.035 90.7403 101.909 93.5797 104.732Z"
        fill="#EFE8D6" stroke="#FFB802" stroke-width="1.63179" stroke-miterlimit="10" />
    <path
        d="M127.88 68.4832L95.9783 83.3488C93.808 84.5563 91.4256 83.7731 93.1063 80.7216L110.615 50.3213C112.606 47.172 115.38 47.3352 118.53 48.5264C121.614 49.6686 124.502 52.1326 126.884 54.8414C129.267 57.5502 131.127 60.5037 132.171 62.674C132.873 64.0937 132.824 65.7418 130.899 67.0798L127.88 68.4832Z"
        fill="#EFE8D6" stroke="#FFB802" stroke-width="1.63179" stroke-miterlimit="10" />
    <path
        d="M129.217 71.3379C134.03 69.3471 135.858 69.2166 137.31 72.986C140.574 81.3898 141.194 88.2759 140.476 94.1177C140.199 96.1738 139.203 97.9361 136.902 97.9687L98.1473 92.2738C93.6109 91.719 93.3988 88.1127 96.8745 86.432L129.217 71.3379Z"
        fill="#EFE8D6" stroke="#FFB802" stroke-width="1.63179" stroke-miterlimit="10" />
    <path
        d="M97.811 95.5403L127.705 100.534L136.909 102.084C139.797 102.687 140.825 104.499 140.972 106.93C141.005 107.762 140.972 108.644 140.841 109.574C139.944 116.917 134.004 127.54 129.941 131.423C128.603 132.712 126.824 133.333 124.915 131.864L99.8671 106.93L95.6081 102.688L94.4658 101.545C94.0742 101.219 93.7642 100.876 93.5031 100.534C91.1043 97.5147 93.4215 94.6428 97.811 95.5403Z"
        fill="#EFE8D6" stroke="#FFB802" stroke-width="1.63179" stroke-miterlimit="10" />
</svg>