<?xml version="1.0" encoding="UTF-8"?>
<svg id="Layer_2" xmlns="http://www.w3.org/2000/svg" viewBox="0 0 499.32 98.64" fill="currentColor">
    <defs>
        <style>
            .cls-1 {
                stroke-width: 0px;
            }
        </style>
    </defs>
    <g id="Layer_2-2">
        <path class="cls-1" d="m15.62,64.08v6.78h27.01v11.39H15.62v14.91H0v-44.8h48.32v11.71H15.62Z" />
        <path class="cls-1" d="m55.62,97.17v-44.8h15.62v44.8h-15.62Z" />
        <path class="cls-1"
            d="m131.26,82.71c0,9.66-8.64,15.93-25.21,15.93-11.65,0-21.76-3.07-28.99-8.51l7.74-8.96c5.12,3.84,12.74,6.46,21.5,6.46,6.4,0,9.54-1.09,9.54-3.33s-2.56-2.94-10.88-3.65c-13.76-1.22-25.98-4.35-25.98-14.59s10.69-15.17,25.21-15.17c9.41,0,18.69,2.18,25.15,6.46l-7.42,9.09c-5.06-3.33-11.01-4.67-17.73-4.67-4.54,0-9.79.58-9.79,3.01,0,2.18,4.03,2.62,11.26,3.2,14.97,1.22,25.6,4.1,25.6,14.72Z" />
        <path class="cls-1"
            d="m192.51,52.37v44.8h-15.61v-16.58h-23.49v16.58h-15.62v-44.8h15.62v15.93h23.49v-15.93h15.61Z" />
        <path class="cls-1"
            d="m268.35,82.71c0,9.66-8.64,15.93-25.21,15.93-11.65,0-21.76-3.07-28.99-8.51l7.74-8.96c5.12,3.84,12.74,6.46,21.5,6.46,6.4,0,9.54-1.09,9.54-3.33s-2.56-2.94-10.88-3.65c-13.76-1.22-25.98-4.35-25.98-14.59s10.69-15.17,25.21-15.17c9.41,0,18.69,2.18,25.15,6.46l-7.42,9.09c-5.06-3.33-11.01-4.67-17.73-4.67-4.54,0-9.79.58-9.79,3.01,0,2.18,4.03,2.62,11.26,3.2,14.97,1.22,25.6,4.1,25.6,14.72Z" />
        <path class="cls-1"
            d="m309.88,89.42h-22.4l-3.65,7.74h-16.25l22.72-44.8h16.96l22.72,44.8h-16.45l-3.65-7.74Zm-4.74-10.11l-6.46-13.82-6.46,13.82h12.93Z" />
        <path class="cls-1"
            d="m383.93,52.37v23.68c0,13.82-9.6,22.59-26.75,22.59s-26.81-8.77-26.81-22.59v-23.68h15.61v22.46c0,6.66,3.46,11.46,11.2,11.46s11.14-4.8,11.14-11.46v-22.46h15.62Z" />
        <path class="cls-1"
            d="m431.8,79.95l12.86,6.78c-4.03,6.78-13.44,11.9-25.85,11.9-16.96,0-28.73-8.58-28.73-23.87s11.78-23.87,29.31-23.87c11.84,0,21.18,5.18,25.09,11.84l-12.93,6.72c-2.75-4.29-6.98-6.34-12.35-6.34-7.94,0-13.31,4.22-13.31,11.65s5.38,11.65,13.31,11.65c5.38,0,9.66-1.92,12.61-6.46Z" />
        <path class="cls-1" d="m499.32,85.9v11.26h-49.21v-44.8h48.51v11.26h-33.21v5.7h27.07v10.37h-27.07v6.21h33.92Z" />
        <path class="cls-1" d="m31.88,7.4h-11.08v20.6h-9.76V7.4H0V0h31.88v7.4Z" />
        <path class="cls-1" d="m69.52,0v28h-9.76v-10.36h-14.68v10.36h-9.76V0h9.76v9.96h14.68V0h9.76Z" />
        <path class="cls-1" d="m106,20.96v7.04h-30.75V0h30.31v7.04h-20.76v3.56h16.92v6.48h-16.92v3.88h21.2Z" />
    </g>
</svg>